<?xml version="1.0" encoding="UTF-8" standalone="no"?>
<!-- Created with Inkscape (http://www.inkscape.org/) -->

<svg
   xmlns:dc="http://purl.org/dc/elements/1.1/"
   xmlns:cc="http://creativecommons.org/ns#"
   xmlns:rdf="http://www.w3.org/1999/02/22-rdf-syntax-ns#"
   xmlns:svg="http://www.w3.org/2000/svg"
   xmlns="http://www.w3.org/2000/svg"
   xmlns:xlink="http://www.w3.org/1999/xlink"
   xmlns:sodipodi="http://sodipodi.sourceforge.net/DTD/sodipodi-0.dtd"
   xmlns:inkscape="http://www.inkscape.org/namespaces/inkscape"
   width="208"
   height="208"
   id="svg2"
   version="1.1"
   inkscape:version="0.48.2 r9819"
   sodipodi:docname="bookie-button-6.svg"
   inkscape:export-filename="/home/rharding/src/bookie/Bookie/extensions/chrome_ext/logo.128.png"
   inkscape:export-xdpi="55.380001"
   inkscape:export-ydpi="55.380001">
  <defs
     id="defs4">
    <linearGradient
       id="linearGradient3802">
      <stop
         style="stop-color:#dde7f9;stop-opacity:0.50196081;"
         offset="0"
         id="stop3804" />
      <stop
         style="stop-color:#dde7f9;stop-opacity:1;"
         offset="1"
         id="stop3806" />
    </linearGradient>
    <linearGradient
       id="linearGradient3836">
      <stop
         style="stop-color:#ff0000;stop-opacity:1;"
         offset="0"
         id="stop3838" />
      <stop
         style="stop-color:#ff0000;stop-opacity:0.70588237;"
         offset="1"
         id="stop3840" />
    </linearGradient>
    <linearGradient
       id="linearGradient3781">
      <stop
         style="stop-color:#c0c0c0;stop-opacity:0.50196081;"
         offset="0"
         id="stop3783" />
      <stop
         style="stop-color:#c0c0c0;stop-opacity:0;"
         offset="1"
         id="stop3785" />
    </linearGradient>
    <linearGradient
       inkscape:collect="always"
       xlink:href="#linearGradient3781"
       id="linearGradient3787"
       x1="2.5917583"
       y1="713.89789"
       x2="337.40823"
       y2="1052.5543"
       gradientUnits="userSpaceOnUse" />
    <linearGradient
       inkscape:collect="always"
       xlink:href="#linearGradient3836"
       id="linearGradient3842"
       x1="-196.70753"
       y1="691.03912"
       x2="-196.63048"
       y2="1034.2209"
       gradientUnits="userSpaceOnUse" />
    <radialGradient
       inkscape:collect="always"
       xlink:href="#linearGradient3802"
       id="radialGradient3808"
       cx="-268.93481"
       cy="935.76166"
       fx="-268.93481"
       fy="935.76166"
       r="100"
       gradientUnits="userSpaceOnUse" />
  </defs>
  <sodipodi:namedview
     id="base"
     pagecolor="#ffffff"
     bordercolor="#666666"
     borderopacity="1.0"
     inkscape:pageopacity="0.0"
     inkscape:pageshadow="2"
     inkscape:zoom="1.4142136"
     inkscape:cx="240.3582"
     inkscape:cy="82.037069"
     inkscape:document-units="px"
     inkscape:current-layer="layer1"
     showgrid="false"
     fit-margin-top="0"
     fit-margin-left="0"
     fit-margin-right="0"
     fit-margin-bottom="0"
     inkscape:window-width="1278"
     inkscape:window-height="779"
     inkscape:window-x="0"
     inkscape:window-y="19"
     inkscape:window-maximized="1" />
  <metadata
     id="metadata7">
    <rdf:RDF>
      <cc:Work
         rdf:about="">
        <dc:format>image/svg+xml</dc:format>
        <dc:type
           rdf:resource="http://purl.org/dc/dcmitype/StillImage" />
        <dc:title></dc:title>
      </cc:Work>
    </rdf:RDF>
  </metadata>
  <g
     inkscape:label="Layer 1"
     inkscape:groupmode="layer"
     id="layer1"
     transform="translate(372.9375,-831.75)">
    <rect
       ry="20"
       rx="20"
       y="835.76166"
       x="-368.93481"
       height="200"
       width="200"
       id="rect3873"
       style="fill:#ffffff;fill-opacity:1;stroke:none" />
    <rect
       style="fill:url(#radialGradient3808);fill-opacity:1;stroke:#000000;stroke-width:8;stroke-miterlimit:4;stroke-opacity:1;stroke-dasharray:none"
       id="rect2997"
       width="200"
       height="200"
       x="-368.93481"
       y="835.76166"
       rx="20"
       ry="20"
       inkscape:export-xdpi="6.9200001"
       inkscape:export-ydpi="6.9200001"
       inkscape:export-filename="/home/ben/Dropbox/Logos/bookie/bookie-button-6-16.png" />
    <g
       id="g3849"
       transform="matrix(0.91239687,0,0,0.91239687,168.63092,176.66142)"
       inkscape:export-filename="/home/ben/Dropbox/Logos/bookie/bookie-button-5-128.png"
       inkscape:export-xdpi="55.380001"
       inkscape:export-ydpi="55.380001">
      <path
         id="path3851"
         transform="translate(-388.93481,815.76166)"
         d="m -136.375,-69.875 c -0.30275,0.0059 -0.62457,0.03125 -0.71875,0.03125 l -0.8125,0 c -0.0657,0 -0.8035,-0.008 -0.8125,0 -0.0639,0.06195 0.0639,0.188 0,0.25 -0.0638,0.062 -0.19095,0 -0.28125,0 l -1.34375,0 c -0.33351,0 -0.5013,-0.02077 -0.8125,0.28125 -0.0903,0 -0.21735,-0.062 -0.28125,0 -0.0639,0.06195 0.0639,0.188 0,0.25 -0.12767,0.1239 -0.40358,-0.1239 -0.53125,0 -0.0639,0.06195 0.0639,0.21925 0,0.28125 -0.0638,0.062 -0.21735,-0.062 -0.28125,0 -0.0639,0.06195 0.0639,0.188 0,0.25 -0.12767,0.1239 -0.40358,-0.1239 -0.53125,0 -0.36112,0.35044 0.44096,0.28125 -0.28125,0.28125 -0.0639,0.06195 0.0639,0.188 0,0.25 -0.12768,0.1239 -0.40357,-0.1239 -0.53125,0 -0.0639,0.06195 0.0639,0.188 0,0.25 -0.0638,0.062 -0.21735,-0.062 -0.28125,0 -0.0639,0.06195 0.0639,0.21925 0,0.28125 -0.0638,0.062 -0.1861,-0.062 -0.25,0 -0.0639,0.06195 0.0639,0.188 0,0.25 -0.0638,0.062 -0.21735,-0.062 -0.28125,0 -0.0639,0.06195 0.0639,0.21925 0,0.28125 -0.0638,0.062 -0.21735,-0.062 -0.28125,0 -0.0639,0.06195 0.0639,0.188 0,0.25 -0.0638,0.0619 -0.1861,-0.062 -0.25,0 -0.0638,0.06195 0.0404,0.1716 0,0.25 -0.0571,0.11082 -0.22415,0.17043 -0.28125,0.28125 -0.3985,0.77346 0.61698,-0.34045 -0.28125,0.53125 -0.0807,0.15673 0.12767,0.3761 0,0.5 -0.0638,0.0619 -0.1861,-0.062 -0.25,0 -0.13541,0.13141 0.13541,0.68109 0,0.8125 -0.0638,0.062 -0.21735,-0.0619 -0.28125,0 -0.0951,0.09226 0.0935,1.13095 0,1.3125 -0.0571,0.11082 -0.22415,0.13918 -0.28125,0.25 -0.0822,0.1596 0.0822,1.43415 0,1.59375 -0.0571,0.11082 -0.1929,0.13918 -0.25,0.25 -0.04,0.07757 0,1.57297 0,1.84375 l 0,0.25 c 0,0.08761 0.0639,0.21925 0,0.28125 -0.0638,0.062 -0.21735,-0.062 -0.28125,0 -0.0639,0.06195 0,0.1624 0,0.25 l 0,0.28125 0,3.125 0,8.9375 0,2.65625 c 0,0.18149 -0.0412,0.95135 0,1.03125 0.3985,0.7735 0.28125,-0.41524 0.28125,0.78125 l 0,0.53125 c 0,0.26284 -0.0657,0.52627 0,0.78125 0.031,0.1202 0.2096,0.16371 0.25,0.28125 0.0571,0.16623 0,0.35603 0,0.53125 l 0,1.5625 c 0,0.17523 -0.0354,0.35943 0,0.53125 0.056,0.27167 0.22525,0.50958 0.28125,0.78125 0.0708,0.34364 0,0.71205 0,1.0625 l 0,1.5625 c 0,0.35045 -0.0511,0.71558 0,1.0625 0.0651,0.44224 0.20555,0.87184 0.28125,1.3125 0.13541,0.78849 -0.27082,-0.53291 0,0.78125 0.056,0.27167 0.1807,0.51247 0.25,0.78125 0.0637,0.24737 -0.0637,0.56513 0,0.8125 0.049,0.19005 0.23225,0.3412 0.28125,0.53125 0.0438,0.16999 0,0.32478 0,0.5 0,0.43805 -0.0885,0.88295 0,1.3125 0.0396,0.1921 0.23225,0.3412 0.28125,0.53125 0.0438,0.17 0,0.35603 0,0.53125 l 0,1.3125 0,3.15625 0,4.21875 c 0,0.14131 -0.0564,1.92955 0,2.09375 0.0404,0.11754 0.2097,0.13246 0.25,0.25 0.0571,0.16623 0,0.35602 0,0.53125 l 0,1.84375 0,0.53125 c 0,0.08761 -0.0286,0.1669 0,0.25 0.0638,0.18585 0.21735,0.3454 0.28125,0.53125 0.0774,0.22539 -0.055,0.79572 0,1.0625 0.073,0.35421 0.20825,0.67704 0.28125,1.03125 0.055,0.26678 -0.0774,0.8371 0,1.0625 0.0638,0.18585 0.1861,0.3454 0.25,0.53125 0.0286,0.08311 0,0.1624 0,0.25 l 0,0.53125 0,1.3125 0,0.53125 c 0,0.08762 -0.0286,0.1669 0,0.25 0.0638,0.18585 0.21735,0.3454 0.28125,0.53125 0.0286,0.08311 0,0.19365 0,0.28125 0,0.35044 -0.0708,0.68761 0,1.03125 0.056,0.27167 0.21195,0.51247 0.28125,0.78125 0.0438,0.16999 0,0.35603 0,0.53125 l 0,1.3125 0,3.9375 0,2.375 c 0,0.18149 -0.0411,0.9826 0,1.0625 0.0571,0.11082 0.2097,0.13246 0.25,0.25 0.0571,0.16623 0,0.35603 0,0.53125 l 0,1.5625 c 0,0.17522 -0.0438,0.36127 0,0.53125 0.0489,0.19006 0.21735,0.3454 0.28125,0.53125 0.0585,0.17029 0,1.09732 0,1.3125 l 0,2.09375 0,7.375 0,7.875 0,2.125 c 0,0.21519 -0.0585,1.1422 0,1.3125 0.0638,0.18585 0.24805,0.30676 0.28125,0.5 0.0594,0.34567 0,0.71206 0,1.0625 l 0,1.59375 0,4.46875 0,7.34375 0,3.15625 0,1.0625 c 0,0.17523 -0.0354,0.32819 0,0.5 0.056,0.27168 0.194,0.54083 0.25,0.8125 0.0354,0.17182 0,0.32478 0,0.5 l 0,1.34375 0,3.9375 0,5.5 c 0,0.06374 0.009,0.8045 0,0.8125 -0.0638,0.062 -0.1861,-0.062 -0.25,0 -0.0109,0.01058 0,0.93475 0,1.03125 l 0,7.09375 c 0,0.13744 -0.0356,0.9934 0,1.0625 0.0571,0.11083 0.1929,0.13917 0.25,0.25 0.0403,0.07835 0,0.19365 0,0.28125 l 0,0.25 0,1.59375 0,0.25 c 0,0.08761 -0.0403,0.1716 0,0.25 0.0571,0.11083 0.22415,0.17043 0.28125,0.28125 0.0356,0.06911 0,0.89381 0,1.03125 l 0,2.65625 0,1.8125 c 0,0.11837 0.0412,0.7325 0,0.8125 -0.0571,0.11082 -0.22415,0.13918 -0.28125,0.25 -0.0412,0.07999 0,0.66289 0,0.78125 l 0,1.59375 c 0,0.06375 0.009,0.77325 0,0.78125 -0.0638,0.062 -0.1861,-0.062 -0.25,0 -0.0639,0.06195 0,0.1624 0,0.25 l 0,1.84375 0,2.125 c 0,0.11837 -0.0412,0.70125 0,0.78125 0.0571,0.11082 0.1929,0.13918 0.25,0.25 0.0807,0.15672 -0.0807,0.37452 0,0.53125 0.0571,0.11082 0.22415,0.13918 0.28125,0.25 0.0403,0.07836 -0.0286,0.19815 0,0.28125 0.0638,0.18585 0.21735,0.34539 0.28125,0.53125 0.0286,0.08311 -0.0403,0.1716 0,0.25 0.0571,0.11082 0.1929,0.17043 0.25,0.28125 0.0403,0.07836 -0.0639,0.188 0,0.25 0.0638,0.062 0.21735,-0.062 0.28125,0 0.12767,0.12391 -0.12768,0.40735 0,0.53125 0.0638,0.062 0.21735,-0.062 0.28125,0 0.0639,0.06195 -0.0403,0.1716 0,0.25 0.0571,0.11082 0.1929,0.17043 0.25,0.28125 0.3985,0.77347 -0.61697,-0.3717 0.28125,0.5 0.0403,0.07836 -0.0639,0.21925 0,0.28125 0.0638,0.062 0.21735,-0.062 0.28125,0 0.12767,0.12389 -0.12767,0.40734 0,0.53125 0.0638,0.062 0.1861,-0.062 0.25,0 0.0639,0.06195 -0.0639,0.188 0,0.25 0.0638,0.062 0.21735,-0.062 0.28125,0 0.0639,0.06195 -0.0639,0.188 0,0.25 0.0638,0.062 0.20055,-0.0392 0.28125,0 0.11419,0.05541 0.13581,0.22585 0.25,0.28125 0.16149,0.0784 0.43482,-0.12389 0.5625,0 0.0639,0.06195 -0.0639,0.188 0,0.25 0.0554,0.0538 0.70512,-0.0521 0.8125,0 0.11419,0.0554 0.1358,0.22585 0.25,0.28125 0.07,0.034 1.43303,0 1.625,0 0.0903,0 0.20045,-0.0392 0.28125,0 0.11418,0.05541 0.16706,0.1946 0.28125,0.25 0.07,0.034 1.43303,0 1.625,0 0.0903,0 0.1861,-0.062 0.25,0 0.0639,0.06195 -0.0639,0.21925 0,0.28125 0.0638,0.062 0.19095,0 0.28125,0 l 0.28125,0 2.96875,0 1.09375,0 0.53125,0 c 0.0903,0 0.20055,-0.0392 0.28125,0 0.11419,0.05542 0.1358,0.1946 0.25,0.25 0.0824,0.04 0.69052,0 0.8125,0 l 1.90625,0 0.28125,0 c 0.0903,0 0.1693,-0.0392 0.25,0 0.1142,0.05541 0.16014,0.2108 0.28125,0.25 0.17129,0.0554 0.3507,0 0.53125,0 0.2214,0 1.76899,-0.0444 1.90625,0 0.3765,0.12181 0.41647,0.21331 0.375,0.25 -0.0459,0.005 -0.15759,0.0312 0.15625,0.0312 l 1.375,0 c 0.0903,0 0.1693,-0.0392 0.25,0 0.11419,0.0554 0.16013,0.2108 0.28125,0.25 0.29028,0.0939 1.27526,-0.0679 1.625,0 0.27993,0.0543 0.53555,0.21405 0.8125,0.28125 0.21713,0.0527 0.95495,-0.0674 1.09375,0 0.1142,0.0554 0.13581,0.1946 0.25,0.25 0.0807,0.0392 0.19095,0 0.28125,0 l 0.53125,0 1.375,0 c 0.0903,0 0.1693,-0.0392 0.25,0 0.1142,0.0554 0.16706,0.1946 0.28125,0.25 0.11567,0.0561 1.23668,0 1.34375,0 0.48023,0 0.72439,0.0104 0.84375,0 -0.073,0.0331 -0.0968,0.11299 0.25,0.28125 0.17949,0.0871 0.86676,-0.0734 1.09375,0 0.1915,0.0619 0.33974,0.188 0.53125,0.25 0.0856,0.0277 0.19565,-0.0277 0.28125,0 0.84053,0.27193 0.59088,0.28618 0.4375,0.28125 0.10792,0.0336 0.36023,0.11753 0.90625,0.25 0.21712,0.0527 0.95494,-0.0674 1.09375,0 0.11418,0.0554 0.12887,0.2109 0.25,0.25 0.30581,0.0989 1.04132,-0.0648 1.375,0 0.27993,0.0543 0.53555,0.21405 0.8125,0.28125 0.0876,0.0213 0.1644,-0.0277 0.25,0 0.1915,0.0619 0.371,0.188 0.5625,0.25 0.25693,0.0831 0.54976,-0.0637 0.8125,0 0.19584,0.0475 0.33975,0.21925 0.53125,0.28125 0.13616,0.0441 1.5543,0 1.625,0 l 2.4375,0 9.46875,0 5.96875,0 1.625,0 c 0.27083,0 0.54976,0.0637 0.8125,0 0.12386,-0.03 0.16013,-0.24205 0.28125,-0.28125 0.17128,-0.0554 0.35071,0 0.53125,0 l 1.09375,0 0.53125,0 c 0.09028,0 0.19365,0.0213 0.28125,0 0.27695,-0.0672 0.53257,-0.1957 0.8125,-0.25 0.30545,-0.0593 0.98932,0 1.34375,0 0.18055,0 0.35609,0.0425 0.53125,0 0.19584,-0.0475 0.37099,-0.21925 0.5625,-0.28125 0.25693,-0.0831 0.54693,0.0516 0.8125,0 0.27994,-0.0543 0.53257,-0.1957 0.8125,-0.25 0.42602,-0.0827 0.92245,0.10222 1.34375,0 0.19583,-0.0475 0.33975,-0.188 0.53125,-0.25 0.23226,-0.0751 0.81886,0.0533 1.09375,0 0.36499,-0.0708 0.72659,-0.22185 1.09375,-0.28125 0.31316,-0.0507 1.01847,0 1.34375,0 0.18055,0 0.35996,0.0554 0.53125,0 0.12112,-0.0392 0.16013,-0.2108 0.28125,-0.25 0.17129,-0.0554 0.35069,0 0.53125,0 l 0.8125,0 c 0.18056,0 0.38734,0.0425 0.5625,0 0.19584,-0.0475 0.33541,-0.23375 0.53125,-0.28125 0.42483,-0.10307 0.91892,0.10308 1.34375,0 0.19584,-0.0475 0.36667,-0.2025 0.5625,-0.25 0.17516,-0.0425 0.3542,0.0344 0.53125,0 0.27994,-0.0543 0.53256,-0.1957 0.8125,-0.25 0.26557,-0.0516 0.55557,0.0831 0.8125,0 0.19151,-0.0619 0.33542,-0.23375 0.53125,-0.28125 0.17516,-0.0425 0.39121,0.0554 0.5625,0 0.12112,-0.0392 0.12888,-0.2109 0.25,-0.25 0.17129,-0.0554 0.39121,0.0554 0.5625,0 0.12112,-0.0392 0.1358,-0.22585 0.25,-0.28125 0.08074,-0.0392 0.20055,0.0392 0.28125,0 0.11419,-0.05541 0.16706,-0.1946 0.28125,-0.25 0.08075,-0.0392 0.1597,0 0.25,0 0.18056,0 0.39121,0.0554 0.5625,0 0.12112,-0.03918 0.13581,-0.1946 0.25,-0.25 0.08075,-0.0392 0.20045,0.0392 0.28125,0 0.11419,-0.05541 0.19095,-0.19365 0.28125,-0.28125 0.09027,0 0.1693,0.0392 0.25,0 0.11419,-0.05541 0.16013,-0.2108 0.28125,-0.25 0.17128,-0.0554 0.3507,0 0.53125,0 0.09028,-0.08761 0.16706,-0.22585 0.28125,-0.28125 0.16149,-0.0784 0.36976,0.0784 0.53125,0 0.11419,-0.05541 0.16706,-0.1946 0.28125,-0.25 0.08075,-0.0392 0.20055,0.0392 0.28125,0 0.11419,-0.0554 0.13581,-0.22585 0.25,-0.28125 0.16149,-0.0784 0.401,0.0784 0.5625,0 0.11419,-0.05541 0.1358,-0.1946 0.25,-0.25 0.16149,-0.0784 0.40101,0.0784 0.5625,0 0.11419,-0.05541 0.13581,-0.1946 0.25,-0.25 0.08075,-0.0392 0.20055,0.0392 0.28125,0 0.11419,-0.05541 0.16706,-0.22585 0.28125,-0.28125 0.08075,-0.0392 0.1692,0.0392 0.25,0 0.11419,-0.05541 0.16706,-0.1946 0.28125,-0.25 0.25534,-0.12391 0.53554,-0.21405 0.8125,-0.28125 0.17516,-0.0425 0.36976,0.0784 0.53125,0 0.11419,-0.05541 0.16706,-0.1946 0.28125,-0.25 0.08075,-0.0392 0.19565,0.0277 0.28125,0 0.19151,-0.06196 0.33974,-0.188 0.53125,-0.25 0.08564,-0.0277 0.20055,0.0392 0.28125,0 0.11419,-0.05541 0.12888,-0.24205 0.25,-0.28125 0.17128,-0.0554 0.38194,0 0.5625,0 0.09027,-0.08761 0.13581,-0.1946 0.25,-0.25 0.1615,-0.0784 0.40101,0.0784 0.5625,0 0.11419,-0.05541 0.12888,-0.24205 0.25,-0.28125 0.17129,-0.0554 0.39121,0.0554 0.5625,0 0.12112,-0.03918 0.13581,-0.1946 0.25,-0.25 0.08074,-0.0392 0.19565,0.0277 0.28125,0 0.1915,-0.06195 0.33541,-0.2025 0.53125,-0.25 0.26274,-0.0637 0.55557,0.0831 0.8125,0 0.19151,-0.06195 0.371,-0.21925 0.5625,-0.28125 0.24375,-0.0788 0.56875,0.0788 0.8125,0 0.12112,-0.03918 0.13581,-0.1946 0.25,-0.25 0.08074,-0.0392 0.19555,0.0277 0.28125,0 0.1915,-0.06195 0.33975,-0.21925 0.53125,-0.28125 0.08565,-0.0277 0.19565,0.0277 0.28125,0 0.19151,-0.06194 0.33975,-0.188 0.53125,-0.25 0.08564,-0.0277 0.20055,0.0392 0.28125,0 0.11419,-0.05541 0.16706,-0.22585 0.28125,-0.28125 0.08074,-0.0392 0.1692,0.0392 0.25,0 0.11419,-0.05541 0.16705,-0.1946 0.28125,-0.25 0.08074,-0.0392 0.20615,0.0486 0.28125,0 0.21245,-0.13746 0.3507,-0.35603 0.53125,-0.53125 0.09028,0 0.20055,0.0392 0.28125,0 0.11419,-0.05541 0.12888,-0.2108 0.25,-0.25 0.17129,-0.0554 0.39121,0.0554 0.5625,0 0.24224,-0.07836 0.30286,-0.42042 0.53125,-0.53125 0.08074,-0.0392 0.20055,0.0392 0.28125,0 0.11419,-0.05541 0.12888,-0.2108 0.25,-0.25 0.17128,-0.0554 0.39122,0.0554 0.5625,0 0.24224,-0.07836 0.30287,-0.42043 0.53125,-0.53125 0.08075,-0.0392 0.20045,0.0392 0.28125,0 0.11419,-0.0554 0.1597,-0.19365 0.25,-0.28125 0.21154,-0.20529 0.5788,-0.63006 0.8125,-0.78125 0.16796,-0.10867 0.39454,-0.14134 0.5625,-0.25 0.10623,-0.06873 0.13581,-0.22585 0.25,-0.28125 0.08075,-0.0392 0.20055,0.0392 0.28125,0 0.22839,-0.11082 0.30287,-0.42043 0.53125,-0.53125 0.08075,-0.0392 0.21745,0.062 0.28125,0 0.0638,-0.06196 -0.0404,-0.1716 0,-0.25 0.56356,-1.09384 -0.02911,0.29381 0.53125,-0.25 0.32986,-0.32013 0.1477,-0.61123 0.5625,-0.8125 0.37357,-0.18123 0.23184,0.33114 0.53125,-0.25 0.18683,-0.36254 -0.31757,-0.24069 0.28125,-0.53125 0.08075,-0.0392 0.1862,0.062 0.25,0 0.0638,-0.06195 -0.0404,-0.1716 0,-0.25 0.11419,-0.22164 0.44831,-0.30962 0.5625,-0.53125 0.0404,-0.07836 -0.0404,-0.1716 0,-0.25 0.02592,-0.05032 1.0107,-1.0373 1.0625,-1.0625 0.08074,-0.0391 0.20615,0.0486 0.28125,0 0.21246,-0.13745 0.3188,-0.39379 0.53125,-0.53125 0.07512,-0.0486 0.20055,0.0392 0.28125,0 0.11419,-0.05541 0.16706,-0.1946 0.28125,-0.25 0.08075,-0.0392 0.1693,0.0392 0.25,0 0.12542,-0.06086 0.93446,-0.90792 1.09375,-1.0625 0.14258,-0.13838 0.7402,-0.64088 0.8125,-0.78125 0.0404,-0.07836 -0.0404,-0.20285 0,-0.28125 0.0571,-0.11083 0.22415,-0.13917 0.28125,-0.25 0.0404,-0.07836 -0.0638,-0.188 0,-0.25 0.06384,-0.062 0.1862,0.062 0.25,0 0.0638,-0.06195 -0.0501,-0.20835 0,-0.28125 0.14164,-0.20617 0.42086,-0.32506 0.5625,-0.53125 0.0501,-0.0729 -0.0404,-0.1716 0,-0.25 0.05709,-0.11082 0.1929,-0.13919 0.25,-0.25 0.0404,-0.07837 -0.0638,-0.21925 0,-0.28125 0.56036,-0.54381 -0.0011,0.84385 0.5625,-0.25 0.0404,-0.07836 -0.0404,-0.20285 0,-0.28125 0.05709,-0.11082 0.1929,-0.13918 0.25,-0.25 0.0404,-0.07836 -0.0638,-0.21925 0,-0.28125 0.06384,-0.062 0.20055,0.0391 0.28125,0 1.12713,-0.54697 -0.2791,0.04381 0.28125,-0.5 0.06384,-0.062 0.1693,0.0391 0.25,0 0.14465,-0.07019 0.66992,-0.67412 0.8125,-0.8125 0.15929,-0.15458 1.03105,-0.90954 1.09375,-1.03125 0.0404,-0.07836 -0.0404,-0.20285 0,-0.28125 0.1142,-0.22164 0.41706,-0.27837 0.53125,-0.5 0.0404,-0.07837 -0.0404,-0.20285 0,-0.28125 0.0571,-0.11082 0.22415,-0.13918 0.28125,-0.25 0.0404,-0.07836 -0.0404,-0.20285 0,-0.28125 0.0571,-0.11083 0.22415,-0.13917 0.28125,-0.25 0.0404,-0.07835 -0.0285,-0.1669 0,-0.25 0.06384,-0.18585 0.1862,-0.34539 0.25,-0.53125 0.0285,-0.08311 -0.0404,-0.20285 0,-0.28125 0.11419,-0.22164 0.44831,-0.30961 0.5625,-0.53125 0.0404,-0.07837 -0.0404,-0.1716 0,-0.25 0.05709,-0.11082 0.1929,-0.13918 0.25,-0.25 0.0807,-0.15672 -0.0571,-0.36502 0,-0.53125 0.06383,-0.18585 0.21745,-0.34541 0.28125,-0.53125 0.0727,-0.21156 -0.0865,-0.89454 0,-1.0625 0.05709,-0.11082 0.22415,-0.13918 0.28125,-0.25 0.0799,-0.15507 -0.0621,-0.60046 0,-0.78125 0.06384,-0.18585 0.1862,-0.3454 0.25,-0.53125 0.0571,-0.16624 0,-0.35604 0,-0.53125 l 0,-1.3125 0,-0.53125 c 0,-0.08761 -0.0404,-0.1716 0,-0.25 0.0571,-0.11082 0.22415,-0.17043 0.28125,-0.28125 0.0808,-0.15672 -0.0807,-0.34327 0,-0.5 0.0571,-0.11081 0.22415,-0.17043 0.28125,-0.28125 0.0807,-0.15672 -0.0571,-0.36503 0,-0.53125 0.06384,-0.18585 0.1862,-0.3454 0.25,-0.53125 0.0727,-0.21155 -0.0865,-0.8633 0,-1.03125 0.0571,-0.11082 0.22415,-0.17043 0.28125,-0.28125 0.0859,-0.16672 -0.088,-1.14176 0,-1.3125 0.0571,-0.11083 0.22415,-0.13919 0.28125,-0.25 0.0404,-0.07837 0,-0.1624 0,-0.25 l 0,-0.28125 c 0,-0.30424 -0.0605,-1.07784 0,-1.3125 0.04896,-0.19005 0.1862,-0.3454 0.25,-0.53125 0.0538,-0.15672 0,-1.30786 0,-1.5625 l 0,-3.6875 0,-5.25 0,-1.59375 c 0,-0.11837 0.0412,-0.70125 0,-0.78125 -0.0571,-0.11082 -0.2096,-0.13246 -0.25,-0.25 -0.0614,-0.17881 0.0718,-1.17314 0,-1.3125 -0.0571,-0.11082 -0.22415,-0.17044 -0.28125,-0.28125 -0.0808,-0.15673 0.0808,-0.37453 0,-0.53125 -0.3985,-0.77349 -0.28125,0.41523 -0.28125,-0.78125 -0.04037,-0.11755 -0.1929,-0.13918 -0.25,-0.25 -0.0807,-0.15672 0.0807,-0.37452 0,-0.53125 -0.05709,-0.11081 -0.22415,-0.13917 -0.28125,-0.25 -0.14462,-0.2807 0.14463,-0.25054 0,-0.53125 -0.05709,-0.11082 -0.22415,-0.17043 -0.28125,-0.28125 -0.0807,-0.15672 0.0808,-0.34328 0,-0.5 -0.05709,-0.11082 -0.1929,-0.17043 -0.25,-0.28125 -0.0807,-0.15673 0.0571,-0.36502 0,-0.53125 -0.06383,-0.18585 -0.21745,-0.3454 -0.28125,-0.53125 -0.0571,-0.16623 0.0807,-0.34327 0,-0.5 -0.0571,-0.11082 -0.22415,-0.17043 -0.28125,-0.28125 -0.0404,-0.07836 0.0638,-0.188 0,-0.25 -0.06384,-0.062 -0.1862,0.062 -0.25,0 -0.12767,-0.12389 0.0807,-0.37452 0,-0.53125 -0.0571,-0.11082 -0.22415,-0.13918 -0.28125,-0.25 -0.0808,-0.15672 0.0807,-0.37452 0,-0.53125 -0.0571,-0.11081 -0.22415,-0.17043 -0.28125,-0.28125 -0.0808,-0.15672 0.0807,-0.34328 0,-0.5 -0.0571,-0.11083 -0.1929,-0.17044 -0.25,-0.28125 -0.0404,-0.07837 0.0404,-0.1716 0,-0.25 -0.05709,-0.11082 -0.22415,-0.17043 -0.28125,-0.28125 -0.0404,-0.07836 0.0404,-0.1716 0,-0.25 -0.05709,-0.11081 -0.22415,-0.17042 -0.28125,-0.28125 -0.0807,-0.15672 0.0808,-0.34328 0,-0.5 -0.05709,-0.11082 -0.1929,-0.17043 -0.25,-0.28125 -0.0404,-0.07836 0.0638,-0.188 0,-0.25 -0.06383,-0.062 -0.21745,0.062 -0.28125,0 -0.0638,-0.06195 0.0638,-0.21925 0,-0.28125 -0.06383,-0.062 -0.21745,0.062 -0.28125,0 -0.0638,-0.06195 0.0638,-0.188 0,-0.25 -0.06384,-0.062 -0.1862,0.062 -0.25,0 -0.0638,-0.06195 0.0638,-0.188 0,-0.25 -0.06384,-0.062 -0.21745,0.062 -0.28125,0 -0.0638,-0.06195 0.0404,-0.20285 0,-0.28125 -0.1625,-0.3154 -0.65,-0.46585 -0.8125,-0.78125 -0.0404,-0.07836 0.0638,-0.188 0,-0.25 -0.06383,-0.062 -0.21745,0.062 -0.28125,0 -0.0638,-0.06195 0.0404,-0.20285 0,-0.28125 -0.11419,-0.22164 -0.41705,-0.3096 -0.53125,-0.53125 -0.0404,-0.07836 0.0404,-0.1716 0,-0.25 -0.05709,-0.11082 -0.22415,-0.13918 -0.28125,-0.25 -0.0404,-0.07836 0.0638,-0.21925 0,-0.28125 -0.56035,-0.54381 0.03231,0.84384 -0.53125,-0.25 -0.0404,-0.07837 0.0404,-0.20285 0,-0.28125 -0.0571,-0.11082 -0.24085,-0.13246 -0.28125,-0.25 -0.0571,-0.16623 0,-0.35603 0,-0.53125 0,-0.08762 0.0404,-0.1716 0,-0.25 -0.0571,-0.11082 -0.1929,-0.17043 -0.25,-0.28125 -0.0808,-0.15672 0.0807,-0.37452 0,-0.53125 -0.0571,-0.11082 -0.22415,-0.13918 -0.28125,-0.25 -0.0404,-0.07836 0.0638,-0.188 0,-0.25 -0.06384,-0.062 -0.21745,0.062 -0.28125,0 -0.0638,-0.06195 0.0638,-0.21925 0,-0.28125 -0.06383,-0.062 -0.1862,0.062 -0.25,0 -0.0638,-0.06195 0.0638,-0.188 0,-0.25 -0.06383,-0.062 -0.20045,0.0392 -0.28125,0 -0.22838,-0.11081 -0.30286,-0.42043 -0.53125,-0.53125 -0.08074,-0.0392 -0.20055,0.0392 -0.28125,0 -0.1142,-0.05541 -0.16706,-0.1946 -0.28125,-0.25 -0.08075,-0.0392 -0.1693,0.0392 -0.25,0 -0.281782,-0.136743 -0.402076,-0.217041 -0.4375,-0.25 0.08755,-0.01741 0.506469,0.05863 0.15625,-0.28125 -0.06384,-0.062 -0.21745,0.062 -0.28125,0 -0.0638,-0.06195 0.0404,-0.20285 0,-0.28125 -0.0571,-0.11082 -0.1929,-0.13918 -0.25,-0.25 -0.0807,-0.15673 0.12767,-0.40735 0,-0.53125 -0.06383,-0.062 -0.21745,0.062 -0.28125,0 -0.12767,-0.1239 0.12767,-0.40734 0,-0.53125 -0.06383,-0.062 -0.21745,0.062 -0.28125,0 -0.0638,-0.06194 0.0638,-0.188 0,-0.25 -0.06383,-0.062 -0.1862,0.062 -0.25,0 -0.0638,-0.06195 0.0638,-0.21925 0,-0.28125 -0.06383,-0.062 -0.20045,0.0392 -0.28125,0 -0.22838,-0.11082 -0.30287,-0.38919 -0.53125,-0.5 -0.08075,-0.0392 -0.21745,0.062 -0.28125,0 -0.0638,-0.06195 0.0638,-0.21925 0,-0.28125 -0.06384,-0.062 -0.21745,0.062 -0.28125,0 -0.0638,-0.06194 0.0638,-0.188 0,-0.25 -0.06384,-0.062 -0.1692,0.0392 -0.25,0 -0.11419,-0.05541 -0.16706,-0.22585 -0.28125,-0.28125 -0.08074,-0.0392 -0.21745,0.062 -0.28125,0 -0.0638,-0.06195 0.0638,-0.188 0,-0.25 -0.06383,-0.062 -0.1862,0.062 -0.25,0 -0.0638,-0.06196 0.0638,-0.188 0,-0.25 -0.06383,-0.062 -0.21745,0.062 -0.28125,0 -0.0638,-0.06195 0.0638,-0.21925 0,-0.28125 -0.06383,-0.062 -0.20045,0.0391 -0.28125,0 -0.11419,-0.05541 -0.13581,-0.1946 -0.25,-0.25 -0.08075,-0.0392 -0.20055,0.0391 -0.28125,0 -0.1142,-0.05542 -0.16706,-0.22585 -0.28125,-0.28125 -0.08075,-0.0392 -0.1644,0.0277 -0.25,0 -0.19151,-0.06195 -0.37099,-0.188 -0.5625,-0.25 -0.08564,-0.0277 -0.1692,0.0392 -0.25,0 -0.11419,-0.05541 -0.16706,-0.1946 -0.28125,-0.25 -0.16149,-0.0784 -0.36975,0.0784 -0.53125,0 -0.11419,-0.05541 -0.16706,-0.22585 -0.28125,-0.28125 -0.08075,-0.0392 -0.21745,0.062 -0.28125,0 -0.0638,-0.06195 0.0751,-0.2014 0,-0.25 -0.23754,-0.15368 -0.54167,-0.19365 -0.8125,-0.28125 -0.09028,0 -0.1693,0.0392 -0.25,0 -0.11419,-0.05541 -0.16706,-0.1946 -0.28125,-0.25 -0.08074,-0.0392 -0.21745,0.062 -0.28125,0 -0.0638,-0.06195 0.0638,-0.21925 0,-0.28125 -0.06383,-0.062 -0.1692,0.0392 -0.25,0 -0.22838,-0.11082 -0.33412,-0.38918 -0.5625,-0.5 -0.08075,-0.0392 -0.1693,0.0392 -0.25,0 -0.1142,-0.05541 -0.16706,-0.22585 -0.28125,-0.28125 -0.08075,-0.0392 -0.21745,0.062 -0.28125,0 -0.0638,-0.06195 0.0638,-0.188 0,-0.25 -0.06384,-0.062 -0.1693,0.0392 -0.25,0 -0.11419,-0.05542 -0.16706,-0.22585 -0.28125,-0.28125 -0.16149,-0.0784 -0.36976,0.0784 -0.53125,0 -0.22838,-0.11082 -0.33411,-0.38918 -0.5625,-0.5 -0.16149,-0.0784 -0.40358,0.1239 -0.53125,0 -0.0638,-0.06195 0.0638,-0.21925 0,-0.28125 -0.06384,-0.062 -0.20055,0.0392 -0.28125,0 -0.11419,-0.0554 -0.13581,-0.1946 -0.25,-0.25 -0.08075,-0.0392 -0.20045,0.0392 -0.28125,0 -0.11419,-0.05541 -0.16706,-0.22585 -0.28125,-0.28125 -0.08075,-0.0392 -0.1693,0.0392 -0.25,0 -0.22838,-0.11082 -0.33411,-0.38919 -0.5625,-0.5 -0.08074,-0.0392 -0.1692,0.0392 -0.25,0 -0.11419,-0.05541 -0.16706,-0.22585 -0.28125,-0.28125 -0.08075,-0.0392 -0.20055,0.0392 -0.28125,0 -0.11419,-0.0554 -0.13581,-0.1946 -0.25,-0.25 -0.66704,-0.32363 0.24447,0.74451 -0.8125,-0.28125 -0.0638,-0.06195 0.0638,-0.188 0,-0.25 -0.06383,-0.062 -0.20045,0.0392 -0.28125,0 -0.11419,-0.05541 -0.16706,-0.22585 -0.28125,-0.28125 -0.08074,-0.0392 -0.1692,0.0392 -0.25,0 -0.11419,-0.05542 -0.16705,-0.1946 -0.28125,-0.25 -0.08074,-0.0391 -0.20055,0.0392 -0.28125,0 -0.1142,-0.05541 -0.13581,-0.1946 -0.25,-0.25 -0.08075,-0.0392 -0.20055,0.0392 -0.28125,0 -0.22839,-0.11082 -0.30287,-0.42042 -0.53125,-0.53125 -0.08075,-0.0392 -0.21745,0.062 -0.28125,0 -0.0638,-0.06195 0.0638,-0.21925 0,-0.28125 -0.06383,-0.062 -0.20045,0.0392 -0.28125,0 -0.22838,-0.11082 -0.30286,-0.38918 -0.53125,-0.5 -0.08074,-0.0392 -0.21745,0.062 -0.28125,0 -0.0638,-0.06194 0.0638,-0.21925 0,-0.28125 -0.06383,-0.062 -0.1862,0.062 -0.25,0 -0.0638,-0.06195 0.0638,-0.188 0,-0.25 -0.06384,-0.062 -0.21745,0.062 -0.28125,0 -0.12767,-0.1239 0.12767,-0.40736 0,-0.53125 -0.06384,-0.062 -0.21745,0.062 -0.28125,0 -0.0638,-0.06195 0,-0.1624 0,-0.25 0,-0.18281 -0.049,-1.24875 0,-1.34375 0.05709,-0.11082 0.22415,-0.13917 0.28125,-0.25 0.0404,-0.07835 -0.0404,-0.1716 0,-0.25 0.05709,-0.11076 0.22415,-0.17038 0.28125,-0.2812 0.0807,-0.15672 -0.12767,-0.40735 0,-0.53125 0.06383,-0.062 0.1862,0.062 0.25,0 0.0638,-0.06195 -0.0404,-0.1716 0,-0.25 0.1142,-0.22164 0.44831,-0.30961 0.5625,-0.53125 0.0404,-0.07836 -0.0638,-0.188 0,-0.25 0.06384,-0.062 0.1862,0.062 0.25,0 0.0638,-0.06196 -0.0638,-0.21925 0,-0.28125 0.06384,-0.062 0.21745,0.062 0.28125,0 0.0638,-0.06196 -0.0638,-0.188 0,-0.25 0.06384,-0.062 0.21745,0.062 0.28125,0 0.0638,-0.06195 -0.0638,-0.188 0,-0.25 0.06383,-0.062 0.1862,0.062 0.25,0 0.350219,-0.3399187 -0.0687,-0.2638518 -0.15625,-0.28125 0.03542,-0.032952 0.155718,-0.1132675 0.4375,-0.25 0.08074,-0.0392 0.21745,0.062 0.28125,0 0.0638,-0.06195 -0.0404,-0.20285 0,-0.28125 0.11419,-0.22164 0.41706,-0.27835 0.53125,-0.5 0.0404,-0.07836 -0.0638,-0.21925 0,-0.28125 0.06384,-0.062 0.21745,0.062 0.28125,0 0.0638,-0.06195 -0.0638,-0.188 0,-0.25 0.06384,-0.062 0.1862,0.062 0.25,0 0.0638,-0.06195 -0.0638,-0.21925 0,-0.28125 0.06384,-0.062 0.21745,0.062 0.28125,0 C -41.88851,4.39272 -41.86197,4.16299 -41.75,4 c 0.07082,-0.1031 0.1929,-0.13918 0.25,-0.25 0.0404,-0.07836 -0.0638,-0.188 0,-0.25 0.06383,-0.062 0.21745,0.062 0.28125,0 0.0638,-0.06196 -0.0404,-0.20285 0,-0.28125 0.11419,-0.22164 0.41706,-0.30961 0.53125,-0.53125 0.0404,-0.07836 -0.0638,-0.188 0,-0.25 0.06383,-0.062 0.21745,0.062 0.28125,0 0.0638,-0.06194 -0.0404,-0.1716 0,-0.25 0.05709,-0.11081 0.22415,-0.17043 0.28125,-0.28125 0.0404,-0.07836 -0.0638,-0.188 0,-0.25 0.06384,-0.062 0.1862,0.062 0.25,0 0.14274,-0.13853 0.16928,-0.36825 0.28125,-0.53125 0.07082,-0.1031 0.22415,-0.13918 0.28125,-0.25 0.0404,-0.07836 -0.0638,-0.21925 0,-0.28125 0.06384,-0.062 0.1862,0.062 0.25,0 0.0638,-0.06195 -0.0404,-0.1716 0,-0.25 0.11419,-0.22164 0.44831,-0.30961 0.5625,-0.53125 0.0404,-0.07836 -0.0638,-0.21925 0,-0.28125 0.06383,-0.062 0.1862,0.062 0.25,0 1.05697,-1.02576 -0.05227,-0.13391 0.28125,-0.78125 0.05709,-0.11082 0.22415,-0.13918 0.28125,-0.25 0.0404,-0.07836 -0.0638,-0.21925 0,-0.28125 0.06383,-0.062 0.1862,0.062 0.25,0 0.56036,-0.54377 -0.84587,0.04693 0.28125,-0.5 0.08075,-0.0392 0.21745,0.062 0.28125,0 0.14274,-0.13852 0.10726,-0.39273 0.25,-0.53125 0.06384,-0.062 0.21745,0.062 0.28125,0 0.0638,-0.06195 -0.0404,-0.20285 0,-0.28125 0.0571,-0.11083 0.22415,-0.13918 0.28125,-0.25 0.0404,-0.07836 -0.0404,-0.1716 0,-0.25 0.11419,-0.22164 0.41706,-0.30961 0.53125,-0.53125 0.0404,-0.07836 -0.0404,-0.20285 0,-0.28125 0.05709,-0.11082 0.22415,-0.13917 0.28125,-0.25 0.0404,-0.07835 -0.0638,-0.21925 0,-0.28125 0.06383,-0.062 0.1862,0.062 0.25,0 0.0638,-0.06195 -0.0638,-0.188 0,-0.25 0.06383,-0.062 0.21745,0.062 0.28125,0 0.0638,-0.06195 -0.0638,-0.188 0,-0.25 0.350225,-0.3398813 0.264996,0.068317 0.28125,0.15625 0.03342,-0.033429 0.10911,-0.16404 0.25,-0.4375 0.0404,-0.07837 -0.0638,-0.188 0,-0.25 0.06384,-0.062 0.21745,0.062 0.28125,0 0.0638,-0.06195 -0.0404,-0.20285 0,-0.28125 0.03596,-0.06978 0.7406,-0.74635 0.8125,-0.78125 0.08074,-0.0392 0.21745,0.062 0.28125,0 0.0638,-0.06196 -0.0638,-0.188 0,-0.25 0.06383,-0.062 0.1862,0.062 0.25,0 0.12767,-0.1239 -0.0808,-0.37453 0,-0.53125 0.05709,-0.11082 0.22415,-0.13917 0.28125,-0.25 0.0404,-0.07836 -0.0404,-0.20285 0,-0.28125 0.05709,-0.11082 0.22415,-0.13918 0.28125,-0.25 0.0404,-0.07836 -0.0404,-0.20285 0,-0.28125 0.0571,-0.11082 0.1929,-0.13918 0.25,-0.25 0.0807,-0.15672 -0.0807,-0.37453 0,-0.53125 0.0571,-0.11082 0.22415,-0.13919 0.28125,-0.25 0.0808,-0.15673 -0.0571,-0.36502 0,-0.53125 0.06384,-0.18585 0.21745,-0.34541 0.28125,-0.53125 0.0781,-0.22724 -0.0862,-1.14525 0,-1.3125 0.0571,-0.11081 0.1929,-0.13918 0.25,-0.25 0.0404,-0.07836 -0.0285,-0.19815 0,-0.28125 0.06384,-0.18586 0.21745,-0.34539 0.28125,-0.53125 0.0571,-0.16623 -0.0808,-0.34328 0,-0.5 0.0571,-0.11082 0.22415,-0.17043 0.28125,-0.28125 0.0807,-0.15673 -0.0808,-0.37453 0,-0.53125 0.05709,-0.11082 0.1929,-0.13918 0.25,-0.25 0.0602,-0.11695 -0.0413,-0.94229 0,-1.0625 0.04037,-0.11755 0.22415,-0.13918 0.28125,-0.25 0.0807,-0.15672 -0.0808,-0.37453 0,-0.53125 0.05709,-0.11082 0.22415,-0.13918 0.28125,-0.25 0.0412,-0.07999 0,-0.69413 0,-0.8125 l 0,-1.5625 0,-0.28125 c 0,-0.08761 -0.0404,-0.1716 0,-0.25 0.05709,-0.11082 0.1929,-0.13919 0.25,-0.25 0.049,-0.09506 0,-1.1297 0,-1.3125 l 0,-1.84375 c 0,-0.11836 0.0412,-0.70125 0,-0.78125 -0.05709,-0.11082 -0.1929,-0.17044 -0.25,-0.28125 -0.0745,-0.14464 0.0706,-1.35702 0,-1.5625 -0.04038,-0.11754 -0.22415,-0.17042 -0.28125,-0.28125 -0.10833,-0.21026 0.10833,-0.57099 0,-0.78125 -0.0571,-0.11082 -0.22415,-0.13918 -0.28125,-0.25 -0.0808,-0.15673 0.0571,-0.36502 0,-0.53125 -0.06384,-0.18585 -0.1862,-0.3454 -0.25,-0.53125 -0.0285,-0.08312 0.0404,-0.1716 0,-0.25 -0.0571,-0.11082 -0.22415,-0.17043 -0.28125,-0.28125 -0.10833,-0.21026 0.10833,-0.57098 0,-0.78125 -0.0571,-0.11082 -0.22415,-0.17043 -0.28125,-0.28125 -0.0851,-0.16519 0.0851,-0.86605 0,-1.03125 -0.0571,-0.11082 -0.2096,-0.16371 -0.25,-0.28125 -0.0413,-0.12022 0.0603,-0.9143 0,-1.03125 -0.05709,-0.11082 -0.22415,-0.17043 -0.28125,-0.28125 -0.0404,-0.07837 0.0285,-0.1669 0,-0.25 -0.06383,-0.18585 -0.23225,-0.3412 -0.28125,-0.53125 -0.0657,-0.25499 0.0856,-0.53191 0,-0.78125 -0.06383,-0.18585 -0.1862,-0.3454 -0.25,-0.53125 -0.0285,-0.08312 0.0404,-0.1716 0,-0.25 -0.05709,-0.11082 -0.24085,-0.16371 -0.28125,-0.28125 -0.0856,-0.24934 0.0856,-0.5319 0,-0.78125 -0.163477,-0.47595 -0.24921,-0.681493 -0.28125,-0.75 0.01505,0.149717 0.117971,0.682966 -0.25,-0.03125 -0.0404,-0.07836 0,-0.19365 0,-0.28125 0,-0.17522 0.0571,-0.33377 0,-0.5 -0.04037,-0.11755 -0.22415,-0.17043 -0.28125,-0.28125 -0.0716,-0.13897 0.033,-0.9032 0,-1.03125 -0.04896,-0.19005 -0.21745,-0.3454 -0.28125,-0.53125 -0.0621,-0.18079 0.0799,-0.65742 0,-0.8125 -0.0571,-0.11082 -0.1929,-0.13918 -0.25,-0.25 -0.0808,-0.15672 0.0807,-0.37452 0,-0.53125 -0.0571,-0.11082 -0.25025,-0.1298 -0.28125,-0.25 -0.0657,-0.25498 0,-0.51841 0,-0.78125 0,-0.08761 0.0404,-0.20285 0,-0.28125 -0.05709,-0.11082 -0.22415,-0.13918 -0.28125,-0.25 -0.0404,-0.07836 0.0404,-0.20285 0,-0.28125 -0.05709,-0.11082 -0.1929,-0.13918 -0.25,-0.25 -0.0404,-0.07836 0.0404,-0.1716 0,-0.25 -0.05709,-0.11082 -0.22415,-0.17043 -0.28125,-0.28125 -0.0404,-0.07836 0.0501,-0.1771 0,-0.25 -0.14163,-0.20618 -0.38962,-0.32507 -0.53125,-0.53125 -0.0501,-0.0729 0.0404,-0.20285 0,-0.28125 -0.13326,-0.25864 -0.9605,-0.77262 -1.09375,-1.03125 -0.0404,-0.07836 0.0404,-0.20285 0,-0.28125 -0.0571,-0.11082 -0.20465,-0.1509 -0.28125,-0.25 -0.1953,-0.25271 -0.38568,-0.49871 -0.53125,-0.78125 -0.0404,-0.07836 0.0404,-0.20285 0,-0.28125 -0.05709,-0.11082 -0.22415,-0.13918 -0.28125,-0.25 -0.39849,-0.77347 0.64822,0.34046 -0.25,-0.53125 -0.0404,-0.07836 0.0285,-0.1669 0,-0.25 -0.06384,-0.18585 -0.21745,-0.3454 -0.28125,-0.53125 -0.26883,-0.7825 0.63086,0.54653 -0.28125,-0.78125 -0.14164,-0.20618 -0.41706,-0.30961 -0.53125,-0.53125 -0.0404,-0.07836 0.0404,-0.20285 0,-0.28125 -0.11419,-0.22164 -0.41706,-0.27836 -0.53125,-0.5 -0.0404,-0.07837 0.0404,-0.20285 0,-0.28125 -0.02592,-0.05031 -1.04195,-1.00605 -1.09375,-1.03125 -0.08075,-0.0392 -0.20055,0.0392 -0.28125,0 -0.11419,-0.05541 -0.13581,-0.22585 -0.25,-0.28125 -0.08075,-0.0392 -0.20055,0.0392 -0.28125,0 -0.86548,-0.41996 0.33423,-0.11129 -0.53125,-0.53125 -0.25534,-0.12391 -0.53554,-0.1828 -0.8125,-0.25 -0.08758,-0.0213 -0.20045,0.0392 -0.28125,0 -0.11419,-0.05541 -0.16014,-0.2108 -0.28125,-0.25 -0.17129,-0.0554 -0.35997,0.0554 -0.53125,0 -0.12112,-0.03918 -0.16013,-0.24205 -0.28125,-0.28125 -0.17129,-0.0554 -0.36976,0.0784 -0.53125,0 -0.0807,-0.03918 0.0404,-0.1716 0,-0.25 -0.29941,-0.58114 -0.15768,-0.09998 -0.53125,-0.28125 -0.11419,-0.05541 -0.19095,-0.1624 -0.28125,-0.25 -0.09027,-0.08761 -0.22415,-0.17043 -0.28125,-0.28125 -0.0404,-0.07836 0.0638,-0.188 0,-0.25 -0.06383,-0.062 -0.1862,0.062 -0.25,0 -0.0638,-0.06195 0.0404,-0.1716 0,-0.25 -0.13326,-0.25863 -0.9605,-0.80386 -1.09375,-1.0625 -0.0404,-0.07836 0.0638,-0.188 0,-0.25 -0.14274,-0.13853 -0.36329,-0.17259 -0.53125,-0.28125 C -47.64995,-57.10621 -47.81944,-57.32478 -48,-57.5 l -0.8125,-0.78125 c -0.09028,-0.08761 -0.13581,-0.1946 -0.25,-0.25 -0.08075,-0.0392 -0.20055,0.0392 -0.28125,0 -0.325,-0.1577 -0.4875,-0.6548 -0.8125,-0.8125 -0.08074,-0.0392 -0.20045,0.0392 -0.28125,0 -0.29113,-0.14126 -0.55211,-0.31047 -0.8125,-0.5 -0.10214,-0.07434 -0.12888,-0.24205 -0.25,-0.28125 -0.17129,-0.0554 -0.39121,0.0554 -0.5625,0 -0.12112,-0.03918 -0.13581,-0.1946 -0.25,-0.25 -0.08075,-0.0392 -0.20045,0.0392 -0.28125,0 -0.11419,-0.05541 -0.16706,-0.22585 -0.28125,-0.28125 -0.08074,-0.0392 -0.1693,0.0392 -0.25,0 -0.82588,-0.40076 0.49531,-0.1827 -0.8125,-0.5 -0.17517,-0.0425 -0.38195,0 -0.5625,0 -0.09028,0 -0.1693,0.0392 -0.25,0 -0.774675,-0.375919 -0.143191,-0.248695 -0.03125,-0.25 -0.07129,-0.03256 -0.290818,-0.1226 -0.78125,-0.28125 -0.08564,-0.0277 -0.20045,0.0392 -0.28125,0 -0.11419,-0.05541 -0.16706,-0.22585 -0.28125,-0.28125 -0.08074,-0.0392 -0.1644,0.0277 -0.25,0 -0.1915,-0.06195 -0.371,-0.1881 -0.5625,-0.25 -0.08565,-0.0277 -0.1693,0.0392 -0.25,0 -0.11419,-0.05541 -0.16706,-0.1946 -0.28125,-0.25 -0.08075,-0.0392 -0.20055,0.0392 -0.28125,0 -0.11419,-0.05541 -0.13581,-0.22585 -0.25,-0.28125 -0.16149,-0.0784 -0.40101,0.0784 -0.5625,0 -0.82588,-0.40076 0.49531,-0.21395 -0.8125,-0.53125 -0.17517,-0.0425 -0.3507,0 -0.53125,0 -0.09028,0 -0.20055,0.0392 -0.28125,0 -0.11419,-0.05542 -0.13581,-0.1946 -0.25,-0.25 -0.08075,-0.0392 -0.19095,0 -0.28125,0 -0.3611,0 -0.73755,0.0576 -1.09375,0 -0.19911,-0.0322 -0.33975,-0.1881 -0.53125,-0.25 -0.17913,-0.0579 -1.35895,0 -1.625,0 l -3.25,0 -1.34375,0 c -0.18055,0 -0.38545,-0.0344 -0.5625,0 -0.27993,0.05433 -0.53256,0.1957 -0.8125,0.25 -0.30544,0.0593 -0.98932,0 -1.34375,0 l -2.4375,0 -2.4375,0 c -0.2293,0 -0.94815,0.0471 -1.09375,0 -0.12112,-0.03918 -0.12888,-0.2108 -0.25,-0.25 -0.32481,-0.10507 -0.75537,0.0657 -1.09375,0 -0.36499,-0.07084 -0.72876,-0.21045 -1.09375,-0.28125 -0.33854,-0.0657 -0.40625,0.13141 -0.8125,0 -0.12112,-0.03918 -0.12888,-0.2108 -0.25,-0.25 -0.17129,-0.0554 -0.38194,0 -0.5625,0 l -1.34375,0 c -0.27083,0 -0.54693,0.0516 -0.8125,0 -0.19794,-0.03841 -0.33975,-0.21935 -0.53125,-0.28125 -0.08565,-0.0277 -0.19095,0 -0.28125,0 -0.1834,0 -1.78287,0.0399 -1.90625,0 -0.12111,-0.03918 -0.1248,-0.2257 -0.25,-0.25 -0.22306,-0.0433 -1.60323,0.0735 -1.90625,0 -0.19584,-0.04751 -0.33541,-0.23375 -0.53125,-0.28125 -0.35032,-0.085 -0.74343,0.085 -1.09375,0 -0.19584,-0.04752 -0.34382,-0.1772 -0.53125,-0.25 -0.26506,-0.10289 -0.54167,-0.1624 -0.8125,-0.25 -0.09028,0 -0.19565,0.0277 -0.28125,0 -0.38301,-0.1239 -0.71074,-0.40735 -1.09375,-0.53125 -0.80549,-0.26084 0.55567,0.60394 -0.8125,-0.28125 -0.10623,-0.06872 -0.12888,-0.2108 -0.25,-0.25 -0.17128,-0.0554 -0.38734,0.0425 -0.5625,0 -0.19584,-0.04751 -0.34382,-0.1772 -0.53125,-0.25 -0.26505,-0.10289 -0.55716,-0.15735 -0.8125,-0.28125 -0.82589,-0.40077 0.49532,-0.21395 -0.8125,-0.53125 -0.17516,-0.0425 -0.35609,0.0425 -0.53125,0 -0.19584,-0.04751 -0.38194,-0.1624 -0.5625,-0.25 -0.09027,-0.08761 -0.12887,-0.2108 -0.25,-0.25 -0.17128,-0.0554 -0.38734,0.0425 -0.5625,0 -0.19584,-0.04752 -0.33213,-0.24905 -0.53125,-0.28125 -0.35619,-0.0576 -0.73756,0.0576 -1.09375,0 -0.19912,-0.0322 -0.33974,-0.188 -0.53125,-0.25 -0.0856,-0.0277 -0.19095,0 -0.28125,0 l -0.53125,0 -1.34375,0 -5.96875,0 -1.90625,0 -1.0625,0 -0.28125,0 c -0.0903,0 -0.20045,0.0392 -0.28125,0 -0.11419,-0.05541 -0.13581,-0.22585 -0.25,-0.28125 -0.16149,-0.0784 -0.39121,0.0554 -0.5625,0 -0.1915,-0.06195 -0.33975,-0.188 -0.53125,-0.25 -0.0857,-0.0277 -0.19365,0.0212 -0.28125,0 -0.27695,-0.0672 -0.53257,-0.22695 -0.8125,-0.28125 -0.17705,-0.0344 -0.3507,0 -0.53125,0 l -1.34375,0 c -0.18702,0 -1.01145,-0.0399 -1.09375,0 -0.29887,0.145028 -0.31348,0.246378 -0.28125,0.28125 0.0405,0.01156 0.051,0 -0.53125,0 -0.12111,0.03918 -0.16013,0.2108 -0.28125,0.25 -0.17128,0.0554 -0.3507,0 -0.53125,0 -0.0903,0.08761 -0.16706,0.22585 -0.28125,0.28125 -0.0807,0.0392 -0.1749,-0.0486 -0.25,0 -0.21245,0.13746 -0.35823,0.38257 -0.5625,0.53125 -0.16149,0.11754 -0.36329,0.14133 -0.53125,0.25 -0.10623,0.06873 -0.16707,0.1946 -0.28125,0.25 -0.0807,0.0392 -0.1693,-0.0392 -0.25,0 -0.77467,0.375919 -0.14319,0.248696 -0.0312,0.25 -0.0713,0.03256 -0.29082,0.122597 -0.78125,0.28125 -0.17129,0.0554 -0.39121,-0.0554 -0.5625,0 -0.19151,0.06195 -0.33975,0.21925 -0.53125,0.28125 -0.1528,0.0494 -0.63453,0 -0.8125,0 l -1.625,0 c -0.12252,0 -1.5528,0.035 -1.625,0 -0.11418,-0.05541 -0.15739,-0.25125 -0.28125,-0.28125 -0.26275,-0.0638 -0.54167,0 -0.8125,0 -0.0903,0 -0.1644,0.0277 -0.25,0 -0.1915,-0.06195 -0.38194,-0.1624 -0.5625,-0.25 -0.18055,0 -0.35997,0.0554 -0.53125,0 -0.12112,-0.03918 -0.16013,-0.24205 -0.28125,-0.28125 -0.24374,-0.0788 -0.56875,0.0788 -0.8125,0 -1.08332,-0.35044 0.0652,-0.22654 -1.34375,-0.5 -0.39392,-0.07646 -0.5124,-0.06825 -0.53125,-0.03125 -0.16624,-0.09122 -0.47324,-0.198909 -1.09375,-0.5 -0.45138,-0.17522 -0.90892,-0.32026 -1.34375,-0.53125 -0.11419,-0.05541 -0.28125,-0.15735 -0.28125,-0.28125 -0.1142,-0.05541 -0.16706,-0.1946 -0.28125,-0.25 -0.049,-0.02375 -0.32225,-0.03719 -0.625,-0.03125 z m 1.15625,0.25 c -0.0191,-0.001 -0.0649,0.02332 -0.0937,0.03125 0.0563,0.01736 0.125,0.03723 0.125,0 0,-0.0219 -0.0122,-0.03021 -0.0312,-0.03125 z m 41.4375,31.34375 c 0.05988,0.0096 0.131705,0.03125 0.1875,0.03125 l 0.34375,0 3.65625,0 4.375,0 c 0.17884,0 1.56044,-0.0465 1.65625,0 0.14115,0.0685 0.2026,0.244 0.34375,0.3125 0.21393,0.1038 1.07429,-0.0872 1.34375,0 0.23673,0.0766 0.41953,0.26717 0.65625,0.34375 0.13027,0.0421 0.94804,-0.0504 1,0 0.0789,0.0766 -0.0789,0.23592 0,0.3125 0.0789,0.0766 0.24394,-0.0484 0.34375,0 0.14115,0.0685 0.2026,0.244 0.34375,0.3125 0.0998,0.0484 0.20091,0 0.3125,0 0.11159,0.10829 0.20259,0.27525 0.34375,0.34375 0.0998,0.0484 0.26484,-0.0766 0.34375,0 0.0789,0.0766 -0.0789,0.23592 0,0.3125 0.0789,0.0766 0.24394,-0.0484 0.34375,0 0.14115,0.0685 0.17135,0.27525 0.3125,0.34375 0.0998,0.0484 0.24394,-0.0484 0.34375,0 0.14116,0.0685 0.20259,0.244 0.34375,0.3125 0.0998,0.0484 0.21268,-0.0484 0.3125,0 0.14115,0.0685 0.2026,0.244 0.34375,0.3125 0.0998,0.0484 0.24394,-0.0484 0.34375,0 0.14116,0.0685 0.20259,0.27525 0.34375,0.34375 0.0998,0.0484 0.21269,-0.0484 0.3125,0 0.14116,0.0685 0.20259,0.244 0.34375,0.3125 0.19962,0.0969 0.49844,-0.15316 0.65625,0 0.0789,0.0766 -0.0789,0.26717 0,0.34375 0.0789,0.0766 0.24394,-0.0484 0.34375,0 0.14115,0.0685 0.2026,0.24401 0.34375,0.3125 0.0998,0.0484 0.26485,-0.0766 0.34375,0 0.0789,0.0766 -0.0789,0.23592 0,0.3125 0.0789,0.0766 0.23359,-0.0766 0.3125,0 0.0789,0.0766 -0.0789,0.26717 0,0.34375 0.0789,0.0766 0.24394,-0.0484 0.34375,0 0.14115,0.0685 0.20259,0.24401 0.34375,0.3125 0.0998,0.0484 0.23359,-0.0766 0.3125,0 0.0789,0.0766 -0.0789,0.26717 0,0.34375 0.0789,0.0766 0.24393,-0.0484 0.34375,0 0.14115,0.0685 0.2026,0.24401 0.34375,0.3125 0.0998,0.0484 0.24394,-0.0484 0.34375,0 0.14116,0.0685 0.17135,0.24401 0.3125,0.3125 0.19962,0.0969 0.48788,-0.0969 0.6875,0 0.28231,0.13699 0.37394,0.51926 0.65625,0.65625 0.0998,0.0484 0.24394,-0.0484 0.34375,0 0.14116,0.0685 0.20259,0.27526 0.34375,0.34375 0.0998,0.0484 0.2336,-0.0766 0.3125,0 0.0789,0.0766 -0.0789,0.23592 0,0.3125 0.0789,0.0766 0.26484,-0.0766 0.34375,0 0.0789,0.0766 -0.0789,0.23592 0,0.3125 0.0789,0.0766 0.26484,-0.0766 0.34375,0 0.0789,0.0766 -0.0789,0.26717 0,0.34375 0.0789,0.0766 0.23359,-0.0766 0.3125,0 0.69266,0.67221 -1.0495,-0.01983 0.34375,0.65625 0.0998,0.0484 0.26484,-0.0766 0.34375,0 0.0789,0.0766 -0.0499,0.21564 0,0.3125 0.0706,0.13699 0.27317,0.17552 0.34375,0.3125 0.0499,0.0969 -0.0789,0.26718 0,0.34375 0.0789,0.0766 0.23359,-0.0766 0.3125,0 0.0789,0.0766 -0.0499,0.21564 0,0.3125 0.14115,0.27397 0.54635,0.38228 0.6875,0.65625 0.0499,0.0969 -0.0499,0.21564 0,0.3125 0.0706,0.13699 0.24192,0.20677 0.3125,0.34375 0.0998,0.19373 -0.15781,0.5031 0,0.65625 0.0789,0.0766 0.26485,-0.0766 0.34375,0 0.15782,0.15316 -0.0998,0.43127 0,0.625 0.0706,0.13698 0.27317,0.20677 0.34375,0.34375 0.0998,0.19373 -0.15782,0.50309 0,0.65625 0.0789,0.0766 0.26485,-0.0766 0.34375,0 0.16739,0.16244 -0.16738,0.8063 0,0.96875 0.0789,0.0766 0.23359,-0.0766 0.3125,0 0.0789,0.0766 0,0.2042 0,0.3125 0,0.16989 0.044,1.22707 0,1.3125 -0.0706,0.13698 -0.24192,0.17552 -0.3125,0.3125 -0.0998,0.19373 0.0998,0.46252 0,0.65625 -0.0706,0.13698 -0.27317,0.17551 -0.34375,0.3125 -0.0499,0.0969 0.0499,0.24689 0,0.34375 -0.0706,0.13699 -0.27317,0.17552 -0.34375,0.3125 -0.0998,0.19373 0.0998,0.46252 0,0.65625 -1.1103,1.07752 0.14884,-0.29984 -0.34375,0.65625 -0.0706,0.13698 -0.24192,0.17551 -0.3125,0.3125 -0.0998,0.19373 0.0998,0.46252 0,0.65625 -0.0706,0.13699 -0.27317,0.17552 -0.34375,0.3125 -0.0499,0.0969 0.0789,0.26717 0,0.34375 -0.0789,0.0766 -0.26485,-0.0766 -0.34375,0 -0.0789,0.0766 0.0499,0.21564 0,0.3125 -0.0706,0.13699 -0.24192,0.17552 -0.3125,0.3125 -0.0998,0.19373 0.0998,0.46253 0,0.65625 -0.0706,0.13699 -0.27318,0.20677 -0.34375,0.34375 -0.0499,0.0969 0.0789,0.23592 0,0.3125 -0.0789,0.0766 -0.26484,-0.0766 -0.34375,0 -0.15781,0.15316 0.15782,0.5031 0,0.65625 -0.0789,0.0766 -0.26485,-0.0766 -0.34375,0 -0.15782,0.15316 0.15781,0.50309 0,0.65625 -0.0789,0.0766 -0.23359,-0.0766 -0.3125,0 -0.0789,0.0766 0.0789,0.23592 0,0.3125 -0.0789,0.0766 -0.26485,-0.0766 -0.34375,0 -0.15782,0.15315 0.15781,0.5031 0,0.65625 -0.0789,0.0766 -0.26484,-0.0766 -0.34375,0 -0.0789,0.0766 0.0789,0.23592 0,0.3125 -0.0789,0.0766 -0.2336,-0.0766 -0.3125,0 -0.0789,0.0766 0.0789,0.26717 0,0.34375 -0.0789,0.0766 -0.26484,-0.0766 -0.34375,0 -0.0789,0.0766 0.0789,0.23593 0,0.3125 -0.0789,0.0766 -0.26484,-0.0766 -0.34375,0 -0.0789,0.0766 0.0789,0.23592 0,0.3125 -0.0789,0.0766 -0.24394,-0.0484 -0.34375,0 -0.2823,0.13698 -0.37394,0.51927 -0.65625,0.65625 -0.0998,0.0484 -0.24394,-0.0484 -0.34375,0 -0.330679,0.320915 -0.326234,0.325473 -0.3125,0.3125 5.1e-5,-0.03757 -0.06668,-0.05837 -0.34375,0.03125 -2.42491,0.78444 0.53213,-0.11848 -1,0.625 -0.0998,0.0484 -0.24394,-0.0484 -0.34375,0 -0.28231,0.13698 -0.37394,0.51927 -0.65625,0.65625 -0.0998,0.0484 -0.24394,-0.0484 -0.34375,0 -0.2823,0.13698 -0.4052,0.51926 -0.6875,0.65625 -0.0998,0.0484 -0.2336,-0.0766 -0.3125,0 -0.0789,0.0766 0.0789,0.23592 0,0.3125 -0.0789,0.0766 -0.24394,-0.0484 -0.34375,0 -0.40173,0.19493 -0.59827,0.80507 -1,1 -0.0998,0.0484 -0.24394,-0.0484 -0.34375,0 -0.28231,0.13699 -0.37394,0.48802 -0.65625,0.625 -0.0998,0.0484 -0.26484,-0.0766 -0.34375,0 -0.0789,0.0766 0.0789,0.26717 0,0.34375 -0.0789,0.0766 -0.26484,-0.0766 -0.34375,0 -0.0789,0.0766 0.0789,0.23593 0,0.3125 -0.0789,0.0766 -0.2127,-0.0484 -0.3125,0 -0.14116,0.0685 -0.2026,0.27526 -0.34375,0.34375 -0.0998,0.0484 -0.26485,-0.0766 -0.34375,0 -0.0789,0.0766 0.0789,0.23592 0,0.3125 -0.0789,0.0766 -0.24394,-0.0484 -0.34375,0 -0.14116,0.0685 -0.17134,0.24401 -0.3125,0.3125 -0.0998,0.0484 -0.26484,-0.0766 -0.34375,0 -0.0789,0.0766 0.0789,0.26718 0,0.34375 -0.15781,0.15316 -0.45663,-0.0969 -0.65625,0 -0.14115,0.0685 -0.2026,0.24401 -0.34375,0.3125 -0.0998,0.0484 -0.26484,-0.0766 -0.34375,0 -0.0789,0.0766 0.0789,0.23592 0,0.3125 -0.0916,0.0889 -1.16214,-0.0881 -1.34375,0 -0.14116,0.0685 -0.17135,0.27526 -0.3125,0.34375 -0.12107,0.0587 -1.45465,0 -1.6875,0 l -2.6875,0 c -0.17507,0 -1.25572,0.0427 -1.34375,0 -0.14116,-0.0685 -0.17135,-0.27525 -0.3125,-0.34375 -0.0866,-0.042 -1.79396,0 -2.03125,0 -0.11159,0 -0.23359,0.0766 -0.3125,0 -0.0789,-0.0766 0.0789,-0.23592 0,-0.3125 -0.15781,-0.15315 -0.52968,0.15315 -0.6875,0 -0.0789,-0.0766 0.0789,-0.23592 0,-0.3125 -0.15781,-0.15315 -0.49844,0.15316 -0.65625,0 -0.0789,-0.0766 0.0789,-0.26717 0,-0.34375 -0.15781,-0.15316 -0.45663,0.0969 -0.65625,0 -0.14115,-0.0685 -0.2026,-0.24401 -0.34375,-0.3125 -0.19963,-0.0969 -0.48787,0.0969 -0.6875,0 -0.14115,-0.0685 -0.17135,-0.24401 -0.3125,-0.3125 -0.19962,-0.0969 -0.52968,0.15315 -0.6875,0 -0.0789,-0.0766 0.0789,-0.26717 0,-0.34375 -0.0789,-0.0766 -0.21269,0.0484 -0.3125,0 -0.14115,-0.0685 -0.20259,-0.244 -0.34375,-0.3125 -0.0998,-0.0484 -0.26484,0.0766 -0.34375,0 -0.0789,-0.0766 0.0789,-0.26717 0,-0.34375 -0.15782,-0.15315 -0.45663,0.0969 -0.65625,0 -0.14115,-0.0685 -0.2026,-0.24401 -0.34375,-0.3125 -0.19963,-0.0969 -0.49843,0.15315 -0.65625,0 -0.0789,-0.0766 0.0789,-0.23592 0,-0.3125 -0.15781,-0.15316 -0.52968,0.15316 -0.6875,0 -0.0789,-0.0766 0.0789,-0.26718 0,-0.34375 -0.15781,-0.15316 -0.45663,0.0969 -0.65625,0 -0.14115,-0.0685 -0.20259,-0.24401 -0.34375,-0.3125 -0.19962,-0.0969 -0.49844,0.15315 -0.65625,0 -0.0789,-0.0766 0.0789,-0.26717 0,-0.34375 -0.0108,-0.0104 -0.95006,0 -1.03125,0 l -2.65625,0 c -0.15077,0 -0.89812,-0.0494 -1,0 -0.14116,0.0685 -0.19403,0.29531 -0.34375,0.34375 -0.21173,0.0685 -0.46432,0 -0.6875,0 -0.11159,0 -0.21269,-0.0484 -0.3125,0 -0.14116,0.0685 -0.20259,0.24401 -0.34375,0.3125 -0.19962,0.0969 -0.45662,-0.0969 -0.65625,0 -0.14115,0.0685 -0.20259,0.27525 -0.34375,0.34375 -0.0998,0.0484 -0.24394,-0.0484 -0.34375,0 -0.14115,0.0685 -0.2026,0.24401 -0.34375,0.3125 -0.0998,0.0484 -0.2127,-0.0484 -0.3125,0 -0.14116,0.0685 -0.20259,0.24401 -0.34375,0.3125 -0.0998,0.0484 -0.24393,-0.0484 -0.34375,0 -0.14115,0.0685 -0.17135,0.27526 -0.3125,0.34375 -0.0998,0.0484 -0.23215,0 -0.34375,0 -0.11159,0 -0.26484,0.0766 -0.34375,0 -0.0789,-0.0766 0,-0.23545 0,-0.34375 -0.11159,0 -0.26485,0.0766 -0.34375,0 -0.15782,-0.15315 0.15781,-0.47184 0,-0.625 -0.0789,-0.0766 -0.23359,0.0766 -0.3125,0 -0.0789,-0.0766 0.0499,-0.24689 0,-0.34375 -0.0706,-0.13699 -0.27317,-0.17552 -0.34375,-0.3125 -0.0499,-0.0969 0.0499,-0.24688 0,-0.34375 -0.0706,-0.13699 -0.27317,-0.17551 -0.34375,-0.3125 -0.0499,-0.0969 0.0499,-0.21564 0,-0.3125 -0.0706,-0.13699 -0.24193,-0.20677 -0.3125,-0.34375 -0.0499,-0.0969 0.0789,-0.23591 0,-0.3125 -0.0789,-0.0766 -0.26484,0.0766 -0.34375,0 -0.0789,-0.0766 0.0499,-0.24689 0,-0.34375 -0.0706,-0.13699 -0.27318,-0.17552 -0.34375,-0.3125 -0.0499,-0.0969 0.0789,-0.23592 0,-0.3125 -0.0789,-0.0766 -0.26484,0.0766 -0.34375,0 -0.15782,-0.15316 0.0998,-0.46252 0,-0.65625 -0.0706,-0.13699 -0.24191,-0.20677 -0.3125,-0.34375 -0.0499,-0.0969 0.0499,-0.21563 0,-0.3125 -0.0706,-0.13698 -0.27317,-0.17552 -0.34375,-0.3125 -0.0998,-0.19373 0.0998,-0.46252 0,-0.65625 -0.0706,-0.13698 -0.27318,-0.20676 -0.34375,-0.34375 -0.0499,-0.0969 0,-0.20421 0,-0.3125 l 0,-0.3125 c 0,-0.10831 -0.11159,-0.34375 0,-0.34375 l 0,-1.625 c 0,-0.10829 -0.11159,-0.3125 0,-0.3125 l 0,-0.96875 c 0,-0.10829 -0.0789,-0.26717 0,-0.34375 0.0789,-0.0766 0.26485,0.0766 0.34375,0 0.15781,-0.15315 -0.15781,-0.50309 0,-0.65625 0.0789,-0.0766 0.29385,0.0969 0.34375,0 0.0998,-0.19373 -0.0706,-0.41952 0,-0.625 0.0499,-0.14529 0.24193,-0.20676 0.3125,-0.34375 0.0998,-0.19373 -0.0998,-0.46252 0,-0.65625 0.0706,-0.13699 0.27317,-0.17552 0.34375,-0.3125 0.0998,-0.19373 -0.15782,-0.50309 0,-0.65625 0.0789,-0.0766 0.26484,0.0766 0.34375,0 0.0108,-0.0105 0,-0.88994 0,-0.96875 l 0,-1.625 c 0,-0.1083 0.0789,-0.23592 0,-0.3125 -0.0789,-0.0766 -0.26485,0.0766 -0.34375,0 -0.0789,-0.0766 0,-0.23544 0,-0.34375 l 0,-1.9375 c 0,-0.1083 -0.0499,-0.21563 0,-0.3125 0.0706,-0.13698 0.27317,-0.20676 0.34375,-0.34375 0.0998,-0.19372 -0.0998,-0.46252 0,-0.65625 0.0706,-0.13698 0.27317,-0.17551 0.34375,-0.3125 0.0908,-0.17625 -0.0916,-1.2236 0,-1.3125 0.0789,-0.0766 0.2336,0.0766 0.3125,0 0.0716,-0.0695 -0.0615,-1.10213 0,-1.28125 0.0789,-0.22973 0.26485,-0.42652 0.34375,-0.65625 0.0898,-0.2615 -0.10696,-1.10489 0,-1.3125 0.0706,-0.13699 0.27317,-0.17551 0.34375,-0.3125 0.0998,-0.19373 -0.0706,-0.45077 0,-0.65625 0.0789,-0.22973 0.23359,-0.42652 0.3125,-0.65625 0.0435,-0.12642 -0.0519,-0.91833 0,-0.96875 0.0789,-0.0766 0.26484,0.0766 0.34375,0 0.0789,-0.0766 -0.0499,-0.21564 0,-0.3125 0.29099,-0.56481 0.66523,-1.08352 1,-1.625 l 1.6875,0 2.34375,0 0.65625,0 c 0.11159,0 0.24395,-0.0484 0.34375,0 0.14116,0.0685 0.2026,0.244 0.34375,0.3125 0.088,0.0427 1.16869,0 1.34375,0 0.15077,0 0.89812,0.0494 1,0 0.14116,-0.0685 0.17135,-0.24401 0.3125,-0.3125 0.13273,-0.0644 0.96281,0.0664 1.03125,0 0.0789,-0.0766 -0.0789,-0.26718 0,-0.34375 0.16739,-0.16245 0.83261,0.16244 1,0 0.0789,-0.0766 -0.0789,-0.23593 0,-0.3125 0.0108,-0.0104 0.91881,0 1,0 l 0.65625,0 c 0.11159,0 0.24394,0.0484 0.34375,0 0.14115,-0.0685 0.2026,-0.24401 0.34375,-0.3125 0.21041,-0.10211 1.13334,0.1021 1.34375,0 0.14115,-0.0685 0.17135,-0.27526 0.3125,-0.34375 0.18162,-0.0881 1.25215,0.0889 1.34375,0 0.0789,-0.0766 -0.0789,-0.23593 0,-0.3125 0.03945,-0.0383 0.09637,-0.04082 0.15625,-0.03125 z M -100,27.34375 c 0.293155,0.0062 0.60316,0.03125 0.71875,0.03125 l 2,0 c 0.11159,0 0.26484,-0.0766 0.34375,0 0.0789,0.0766 -0.0789,0.23592 0,0.3125 0.15781,0.15315 0.45663,-0.0969 0.65625,0 0.14115,0.0685 0.19404,0.29531 0.34375,0.34375 0.21173,0.0685 0.43307,0 0.65625,0 0.1116,0 0.24394,-0.0484 0.34375,0 0.14115,0.0685 0.2026,0.24401 0.34375,0.3125 0.088,0.0427 1.16869,0 1.34375,0 l 3,0 9.71875,0 2.65625,0 c 0.11405,0 1.16257,-0.0586 1.34375,0 0.23672,0.0766 0.45078,0.26717 0.6875,0.34375 0.21012,0.068 1.04299,0 1.3125,0 l 4.03125,0 c 0.23117,0 1.24197,-0.0494 1.34375,0 0.14116,0.0685 0.20259,0.24401 0.34375,0.3125 0.20328,0.0986 1.79671,-0.0986 2,0 0.14115,0.0685 0.2026,0.24401 0.34375,0.3125 0.19962,0.0969 0.44452,-0.0685 0.65625,0 0.23672,0.0766 0.41953,0.26717 0.65625,0.34375 0.21173,0.0685 0.48788,-0.0969 0.6875,0 0.14115,0.0685 0.2026,0.244 0.34375,0.3125 0.19963,0.0969 0.45663,-0.0969 0.65625,0 0.14116,0.0685 0.2026,0.27526 0.34375,0.34375 0.0998,0.0484 0.20664,-0.0342 0.3125,0 0.23672,0.0766 0.45078,0.23592 0.6875,0.3125 0.10587,0.0342 0.24394,-0.0484 0.34375,0 0.14115,0.0685 0.17135,0.244 0.3125,0.3125 0.19962,0.0969 0.48788,-0.0969 0.6875,0 0.28231,0.13699 0.37394,0.51927 0.65625,0.65625 0.19962,0.0969 0.48788,-0.0969 0.6875,0 0.14115,0.0685 0.17135,0.24401 0.3125,0.3125 0.0998,0.0484 0.26484,-0.0766 0.34375,0 0.0789,0.0766 -0.0789,0.26718 0,0.34375 0.0789,0.0766 0.26485,-0.0766 0.34375,0 0.0789,0.0766 -0.0789,0.23593 0,0.3125 0.0789,0.0766 0.21269,-0.0484 0.3125,0 0.14115,0.0685 0.23216,0.23545 0.34375,0.34375 0.1116,0.1083 0.27317,0.1755 0.34375,0.3125 0.0499,0.0969 -0.0789,0.23593 0,0.3125 0.0789,0.0766 0.20091,0 0.3125,0 0,0.1083 -0.0499,0.24689 0,0.34375 0.0894,0.17352 0.855,0.79771 1.03125,0.96875 0.17625,0.17104 0.8212,0.882 1,0.96875 0.0998,0.0484 0.23359,-0.0766 0.3125,0 0.0789,0.0766 -0.0789,0.26718 0,0.34375 0.0789,0.0766 0.24394,-0.0484 0.34375,0 0.14115,0.0685 0.20259,0.244 0.34375,0.3125 0.0998,0.0484 0.26484,-0.0766 0.34375,0 0.0789,0.0766 -0.0789,0.23592 0,0.3125 0.15782,0.15315 0.49844,-0.15316 0.65625,0 0.0789,0.0766 -0.0789,0.26718 0,0.34375 0.15782,0.15316 0.49844,-0.15315 0.65625,0 0.0789,0.0766 -0.0789,0.23593 0,0.3125 0.0789,0.0766 0.26485,-0.0766 0.34375,0 0.0789,0.0766 -0.0789,0.26717 0,0.34375 0.0789,0.0766 0.26484,-0.0766 0.34375,0 0.0789,0.0766 -0.0789,0.23592 0,0.3125 0.0789,0.0766 0.26485,-0.0766 0.34375,0 0.0789,0.0766 -0.0499,0.21564 0,0.3125 0.0706,0.137 0.24192,0.20676 0.3125,0.34375 0.0499,0.0969 -0.0789,0.23592 0,0.3125 0.0789,0.0766 0.26485,-0.0766 0.34375,0 0.0789,0.0766 -0.0789,0.26717 0,0.34375 0.0789,0.0766 0.26484,-0.0766 0.34375,0 0.0789,0.0766 -0.0499,0.21565 0,0.3125 0.0706,0.13699 0.24193,0.17551 0.3125,0.3125 0.0499,0.0969 -0.0789,0.26717 0,0.34375 0.0789,0.0766 0.24394,-0.0484 0.34375,0 1.39325,0.67605 -0.34891,-0.01603 0.34375,0.65625 0.0789,0.0766 0.26484,-0.0766 0.34375,0 0.0789,0.0766 -0.0789,0.23592 0,0.3125 0.0789,0.0766 0.23359,-0.0766 0.3125,0 0.0789,0.0766 -0.0499,0.21563 0,0.3125 0.14116,0.27397 0.54635,0.38227 0.6875,0.65625 0.0499,0.0969 -0.0499,0.24688 0,0.34375 0.0706,0.13698 0.24192,0.17551 0.3125,0.3125 0.0499,0.0969 -0.0499,0.21564 0,0.3125 0.0706,0.13699 0.27317,0.20677 0.34375,0.34375 0.0499,0.0969 -0.0789,0.23592 0,0.3125 0.0789,0.0766 0.26484,-0.0766 0.34375,0 0.15781,0.15316 -0.15782,0.5031 0,0.65625 0.0789,0.0766 0.26484,-0.0766 0.34375,0 0.15781,0.15315 -0.15781,0.5031 0,0.65625 0.0789,0.0766 0.23359,-0.0766 0.3125,0 0.15781,0.15316 -0.15782,0.5031 0,0.65625 0.0789,0.0766 0.26484,-0.0766 0.34375,0 0.15781,0.15315 -0.15781,0.47184 0,0.625 0.0789,0.0766 0.26485,-0.0766 0.34375,0 0.15782,0.15316 -0.15781,0.5031 0,0.65625 0.0789,0.0766 0.23359,-0.0766 0.3125,0 0.0684,0.0665 -0.0664,0.83994 0,0.96875 0.0706,0.13699 0.27318,0.20677 0.34375,0.34375 0.0998,0.19373 -0.0998,0.46253 0,0.65625 0.0706,0.13699 0.27317,0.17552 0.34375,0.3125 0.0664,0.12882 -0.0684,0.90234 0,0.96875 0.0789,0.0766 0.26485,-0.0766 0.34375,0 0.0684,0.0665 -0.0664,0.83993 0,0.96875 0.0706,0.13698 0.24192,0.20677 0.3125,0.34375 0.0509,0.0989 0,0.82243 0,0.96875 l 0,2.59375 0,1.625 c 0,0.1083 0.0789,0.23592 0,0.3125 -0.0789,0.0766 -0.23359,-0.0766 -0.3125,0 -0.0684,0.0664 0.0664,0.87118 0,1 -0.0706,0.13699 -0.27317,0.17551 -0.34375,0.3125 -0.0499,0.0969 0.0499,0.21564 0,0.3125 -0.0706,0.13699 -0.27317,0.20677 -0.34375,0.34375 -0.0499,0.0969 0.0789,0.23591 0,0.3125 -0.0789,0.0766 -0.26484,-0.0766 -0.34375,0 -0.0789,0.0766 0.0789,0.26718 0,0.34375 -0.0789,0.0766 -0.23359,-0.0766 -0.3125,0 -0.0789,0.0766 0.0789,0.23593 0,0.3125 -0.0789,0.0766 -0.26484,-0.0766 -0.34375,0 -0.0789,0.0766 0.0789,0.23592 0,0.3125 -0.0789,0.0766 -0.26485,-0.0766 -0.34375,0 -0.0789,0.0766 0.0499,0.24688 0,0.34375 -0.0706,0.13698 -0.24192,0.17552 -0.3125,0.3125 -0.0499,0.0969 0.0499,0.24689 0,0.34375 -0.0706,0.13699 -0.27318,0.17551 -0.34375,0.3125 -0.0499,0.0969 0.0499,0.21563 0,0.3125 -0.14116,0.27396 -0.54635,0.38227 -0.6875,0.65625 -0.0998,0.19372 0.15781,0.50309 0,0.65625 -0.0789,0.0766 -0.23359,-0.0766 -0.3125,0 -0.0789,0.0766 0.0499,0.21565 0,0.3125 -0.0706,0.13699 -0.27318,0.20676 -0.34375,0.34375 -0.0499,0.0969 0.0789,0.23592 0,0.3125 -0.0789,0.0766 -0.26484,-0.0766 -0.34375,0 -0.0789,0.0766 0.0789,0.26718 0,0.34375 -0.0789,0.0766 -0.20091,0 -0.3125,0 0,0.1083 0.0499,0.21564 0,0.3125 -0.10662,0.20694 -1.42444,1.36971 -1.6875,1.625 -0.11159,0.10829 -0.27317,0.17551 -0.34375,0.3125 -0.0499,0.0969 0.0789,0.26718 0,0.34375 -0.0789,0.0766 -0.23359,-0.0766 -0.3125,0 -0.0789,0.0766 0.0353,0.20976 0,0.3125 -0.0789,0.22973 -0.26484,0.42652 -0.34375,0.65625 -0.0353,0.10274 0.0499,0.21564 0,0.3125 -0.0706,0.13699 -0.27317,0.20677 -0.34375,0.34375 -0.0499,0.0969 0.0789,0.23592 0,0.3125 -0.0789,0.0766 -0.26484,-0.0766 -0.34375,0 -0.0789,0.0766 0.0499,0.21564 0,0.3125 -0.0706,0.13699 -0.24193,0.20677 -0.3125,0.34375 -0.0499,0.0969 0.0789,0.23592 0,0.3125 -0.0789,0.0766 -0.26484,-0.0766 -0.34375,0 -0.0789,0.0766 0.0789,0.26717 0,0.34375 -0.0789,0.0766 -0.26485,-0.0766 -0.34375,0 -0.0789,0.0766 0.0789,0.23593 0,0.3125 -0.0789,0.0766 -0.21269,-0.0484 -0.3125,0 -0.40173,0.19494 -0.62952,0.77382 -1.03125,0.96875 -0.0998,0.0484 -0.23359,-0.0766 -0.3125,0 -0.0789,0.0766 0.0789,0.26718 0,0.34375 -0.15781,0.15316 -0.52968,-0.15315 -0.6875,0 -0.0789,0.0766 0.0789,0.23592 0,0.3125 -0.0789,0.0766 -0.23359,-0.0766 -0.3125,0 -0.0789,0.0766 0.0789,0.23592 0,0.3125 -0.0789,0.0766 -0.24394,-0.0484 -0.34375,0 -0.14115,0.0685 -0.2026,0.27526 -0.34375,0.34375 -0.0998,0.0484 -0.23788,-0.0342 -0.34375,0 -0.23672,0.0766 -0.41952,0.23593 -0.65625,0.3125 -0.10586,0.0343 -0.24394,-0.0484 -0.34375,0 -0.14115,0.0685 -0.17134,0.27525 -0.3125,0.34375 -0.0998,0.0484 -0.24394,-0.0484 -0.34375,0 -0.14115,0.0685 -0.20259,0.244 -0.34375,0.3125 -0.19962,0.0969 -0.49844,-0.15316 -0.65625,0 -0.0789,0.0766 0,0.20421 0,0.3125 -0.22319,0.1083 -0.45078,0.26718 -0.6875,0.34375 -0.21173,0.0685 -0.45663,-0.0969 -0.65625,0 -0.14116,0.0685 -0.20259,0.244 -0.34375,0.3125 -0.0998,0.0484 -0.21269,-0.0484 -0.3125,0 -0.14116,0.0685 -0.20259,0.27525 -0.34375,0.34375 -0.19962,0.0969 -0.48788,-0.0969 -0.6875,0 -0.2823,0.13698 -0.37394,0.48801 -0.65625,0.625 -0.19962,0.0969 -0.49843,-0.15316 -0.65625,0 -0.0789,0.0766 0.0789,0.26717 0,0.34375 -0.0789,0.0766 -0.26484,-0.0766 -0.34375,0 -0.0789,0.0766 0.0789,0.23593 0,0.3125 -0.0789,0.0766 -0.24393,-0.0484 -0.34375,0 -0.36536,0.17729 -0.29088,0.47896 -0.65625,0.65625 -0.0998,0.0484 -0.24394,-0.0484 -0.34375,0 -0.14115,0.0685 -0.2026,0.244 -0.34375,0.3125 -0.0998,0.0484 -0.23359,-0.0766 -0.3125,0 -0.0789,0.0766 0.0789,0.26718 0,0.34375 -0.15781,0.15316 -0.48788,-0.0969 -0.6875,0 -0.14115,0.0685 -0.2026,0.24401 -0.34375,0.3125 -0.0998,0.0484 -0.21269,-0.0484 -0.3125,0 -0.14115,0.0685 -0.2026,0.27526 -0.34375,0.34375 -0.19962,0.0969 -0.45663,-0.0969 -0.65625,0 -0.14116,0.0685 -0.20259,0.244 -0.34375,0.3125 -0.19962,0.0969 -0.48788,-0.0969 -0.6875,0 -0.14115,0.0685 -0.17135,0.24401 -0.3125,0.3125 -0.19962,0.0969 -0.48788,-0.0969 -0.6875,0 -0.14115,0.0685 -0.17134,0.27526 -0.3125,0.34375 -0.19962,0.0969 -0.48788,-0.0969 -0.6875,0 -0.14116,0.0685 -0.2026,0.24401 -0.34375,0.3125 -0.13274,0.0644 -0.93156,-0.0664 -1,0 -0.0789,0.0766 0.0998,0.29532 0,0.34375 -0.29944,0.1453 -0.70056,-0.1453 -1,0 -0.14115,0.0685 -0.2026,0.24401 -0.34375,0.3125 -0.19962,0.0969 -0.45663,-0.0969 -0.65625,0 -0.14116,0.0685 -0.20259,0.24401 -0.34375,0.3125 -0.0865,0.042 -1.76271,0 -2,0 -0.11159,0 -0.26484,-0.0766 -0.34375,0 -0.0789,0.0766 0.0789,0.26717 0,0.34375 -0.0108,0.0104 -0.91881,0 -1,0 -0.23729,0 -1.91345,0.042 -2,0 -0.14116,-0.0685 -0.2026,-0.27526 -0.34375,-0.34375 -0.26782,-0.12995 -0.73218,0.12996 -1,0 -0.14115,-0.0685 -0.2026,-0.24401 -0.34375,-0.3125 -0.19963,-0.0969 -0.49843,0.15315 -0.65625,0 -0.0789,-0.0766 0.0789,-0.23592 0,-0.3125 -0.0108,-0.0105 -0.91881,0 -1,0 -0.89274,0 0.10261,0.08944 -0.34375,-0.34375 -0.11752,-0.11405 -1.45626,0.1122 -1.6875,0 -0.14115,-0.0685 -0.17135,-0.24401 -0.3125,-0.3125 -0.19963,-0.0969 -0.48788,0.0969 -0.6875,0 -0.14116,-0.0685 -0.17135,-0.27526 -0.3125,-0.34375 -0.19962,-0.0969 -0.48789,0.0969 -0.6875,0 -0.14116,-0.0685 -0.2026,-0.24401 -0.34375,-0.3125 -0.19962,-0.0969 -0.49844,0.15316 -0.65625,0 -0.0789,-0.0766 0.0789,-0.23593 0,-0.3125 -0.0685,-0.0665 -0.86727,0.0644 -1,0 -0.14116,-0.0685 -0.2026,-0.27526 -0.34375,-0.34375 -0.0998,-0.0484 -0.24394,0.0484 -0.34375,0 -0.14115,-0.0685 -0.17135,-0.244 -0.3125,-0.3125 -0.19962,-0.0969 -0.48788,0.0969 -0.6875,0 -0.14115,-0.0685 -0.17134,-0.27526 -0.3125,-0.34375 -0.19962,-0.0969 -0.48788,0.0969 -0.6875,0 -0.14116,-0.0685 -0.17135,-0.24401 -0.3125,-0.3125 -0.26782,-0.12996 -0.76343,0.12995 -1.03125,0 -0.14115,-0.0685 -0.17135,-0.24401 -0.3125,-0.3125 -0.19962,-0.0969 -0.48788,0.0969 -0.6875,0 -0.14115,-0.0685 -0.20091,-0.23545 -0.3125,-0.34375 -0.22318,0 -0.47577,0.0685 -0.6875,0 -0.14972,-0.0484 -0.2026,-0.24401 -0.34375,-0.3125 -0.26782,-0.12996 -0.73218,0.12995 -1,0 -0.14115,-0.0685 -0.17134,-0.27526 -0.3125,-0.34375 -0.21041,-0.1021 -1.13334,0.1021 -1.34375,0 -0.14115,-0.0685 -0.20259,-0.244 -0.34375,-0.3125 -0.19962,-0.0969 -0.45663,0.0969 -0.65625,0 -0.14115,-0.0685 -0.2026,-0.24401 -0.34375,-0.3125 -0.19962,-0.0969 -0.47578,0.0685 -0.6875,0 -0.23672,-0.0766 -0.41953,-0.26718 -0.65625,-0.34375 -0.21173,-0.0685 -0.45663,0.0969 -0.65625,0 -0.14115,-0.0685 -0.2026,-0.244 -0.34375,-0.3125 -0.13274,-0.0644 -0.93156,0.0664 -1,0 -0.0789,-0.0766 0.0789,-0.26717 0,-0.34375 -0.0789,-0.0766 -0.24394,0.0484 -0.34375,0 -0.14115,-0.0685 -0.2026,-0.24401 -0.34375,-0.3125 -0.13274,-0.0644 -0.93155,0.0664 -1,0 -0.0789,-0.0766 0.0789,-0.23593 0,-0.3125 -0.0789,-0.0766 -0.26484,0.0766 -0.34375,0 -0.0789,-0.0766 0.0789,-0.26717 0,-0.34375 -0.0789,-0.0766 -0.23359,0.0766 -0.3125,0 -0.0789,-0.0766 0.0499,-0.21563 0,-0.3125 -0.14116,-0.27396 -0.54635,-0.38227 -0.6875,-0.65625 -0.0499,-0.0969 0.0789,-0.23592 0,-0.3125 -0.0789,-0.0766 -0.23359,0.0766 -0.3125,0 -0.0789,-0.0766 0.0789,-0.26717 0,-0.34375 -0.0789,-0.0766 -0.26483,0.0766 -0.34375,0 -0.0789,-0.0766 0.0789,-0.23593 0,-0.3125 -0.0789,-0.0766 -0.26484,0.0766 -0.34375,0 -0.0789,-0.0766 0.0499,-0.24688 0,-0.34375 -0.20086,-0.38986 -0.79914,-0.57888 -1,-0.96875 -0.0499,-0.0969 0.0789,-0.23592 0,-0.3125 -0.0789,-0.0766 -0.26484,0.0766 -0.34375,0 -0.0789,-0.0766 0.0499,-0.24688 0,-0.34375 -0.0706,-0.13698 -0.24192,-0.17551 -0.3125,-0.3125 -0.0499,-0.0969 0.0499,-0.21564 0,-0.3125 -0.20087,-0.38987 -0.83039,-0.57888 -1.03125,-0.96875 -0.0499,-0.0969 0.0499,-0.24689 0,-0.34375 -0.0706,-0.13698 -0.24192,-0.17551 -0.3125,-0.3125 -0.0499,-0.0969 0.0789,-0.26717 0,-0.34375 -0.0789,-0.0766 -0.26484,0.0766 -0.34375,0 -0.15781,-0.15316 0.15782,-0.47185 0,-0.625 -0.0789,-0.0766 -0.26484,0.0766 -0.34375,0 -0.0789,-0.0766 0.0499,-0.24688 0,-0.34375 -0.0706,-0.13698 -0.24193,-0.17552 -0.3125,-0.3125 -0.13391,-0.25992 0.1339,-0.70883 0,-0.96875 -0.0706,-0.13698 -0.29384,-0.19846 -0.34375,-0.34375 -0.0571,-0.16631 0,-1.70523 0,-1.9375 0,-0.10829 0.0499,-0.24689 0,-0.34375 -0.0706,-0.13699 -0.27318,-0.17552 -0.34375,-0.3125 -0.0499,-0.0969 0,-0.2042 0,-0.3125 l 0,-1.3125 c 0,-0.21659 0.0706,-0.45078 0,-0.65625 -0.0789,-0.22974 -0.26484,-0.42652 -0.34375,-0.65625 -0.0767,-0.22347 0.0988,-0.77706 0,-0.96875 -0.0706,-0.13698 -0.24191,-0.17551 -0.3125,-0.3125 -0.0987,-0.19169 0.0768,-0.74528 0,-0.96875 -0.0789,-0.22973 -0.26484,-0.42652 -0.34375,-0.65625 -0.0435,-0.12642 0.0519,-0.91833 0,-0.96875 -0.0789,-0.0766 -0.26485,0.0766 -0.34375,0 -0.0789,-0.0766 0,-0.23546 0,-0.34375 0,-0.22598 0.0605,-1.50751 0,-1.625 -0.0706,-0.13699 -0.24193,-0.17551 -0.3125,-0.3125 -0.0446,-0.0866 0,-1.82177 0,-1.96875 l 0,-4.84375 0,-5.21875 0,-1.9375 c 0,-0.14632 -0.051,-0.86988 0,-0.96875 0.0706,-0.13699 0.24192,-0.20676 0.3125,-0.34375 0.0499,-0.0969 0,-0.2042 0,-0.3125 l 0,-1.625 0,-0.34375 c 0,-0.10829 -0.0499,-0.21563 0,-0.3125 0.0706,-0.13698 0.27318,-0.17551 0.34375,-0.3125 0.10164,-0.19727 -0.10164,-1.77147 0,-1.96875 0.0706,-0.13698 0.27318,-0.17551 0.34375,-0.3125 0.0998,-0.19373 -0.15781,-0.5031 0,-0.65625 0.0789,-0.0766 0.2336,0.0766 0.3125,0 0.15782,-0.15315 -0.0998,-0.46252 0,-0.65625 0.291,-0.5648 0.69647,-1.08352 1.03125,-1.625 0.0129,-0.20249 2.25537,0.12968 2.65625,0 0.23672,-0.0766 0.45077,-0.23592 0.6875,-0.3125 0.32078,-0.10377 1.34611,0.10032 1.65625,0 0.14971,-0.0484 0.19404,-0.26407 0.34375,-0.3125 0.21173,-0.0685 0.4374,0.0424 0.65625,0 0.34603,-0.0672 0.6889,-0.26069 1.03125,-0.34375 0.22783,-0.0553 0.81692,0.0888 1,0 0.14115,-0.0685 0.17135,-0.24401 0.3125,-0.3125 0.22187,-0.10766 1.06317,0.0908 1.34375,0 0.23673,-0.0766 0.45078,-0.26717 0.6875,-0.34375 0.21173,-0.0685 0.45663,0.0969 0.65625,0 0.14116,-0.0685 0.20259,-0.24401 0.34375,-0.3125 0.0509,-0.0247 0.33185,-0.03742 0.625,-0.03125 z"
         style="fill:#666666;stroke:none"
         inkscape:connector-curvature="0" />
      <text
         transform="scale(1.0150981,0.98512647)"
         sodipodi:linespacing="125%"
         id="text2991"
         y="931.08228"
         x="-548.57355"
         style="font-size:22.85689354px;font-style:normal;font-variant:normal;font-weight:bold;font-stretch:normal;line-height:125%;letter-spacing:0px;word-spacing:0px;fill:#000000;fill-opacity:1;stroke:none;font-family:CabinSketch;-inkscape-font-specification:Sans Bold"
         xml:space="preserve"><tspan
           style="font-size:274.28271484px;fill:#000000"
           y="931.08228"
           x="-548.57355"
           id="tspan2993"
           sodipodi:role="line">B</tspan></text>
    </g>
  </g>
</svg>
